solid CATIA STL
  facet normal  0.000000e+000  0.000000e+000  1.000000e+000
    outer loop
      vertex -8.073449e-003  2.854856e-002  1.000000e-003
      vertex  5.112831e-003  2.922431e-002  1.000000e-003
      vertex -1.518378e-003  2.962931e-002  1.000000e-003
    endloop
  endfacet
  facet normal  0.000000e+000  0.000000e+000  1.000000e+000
    outer loop
      vertex -1.422368e-002  2.603628e-002  1.000000e-003
      vertex -1.966069e-002  2.221843e-002  1.000000e-003
      vertex  1.728645e-002  2.411181e-002  1.000000e-003
    endloop
  endfacet
  facet normal  0.000000e+000  0.000000e+000  1.000000e+000
    outer loop
      vertex -1.422368e-002  2.603628e-002  1.000000e-003
      vertex  1.728645e-002  2.411181e-002  1.000000e-003
      vertex  1.148766e-002  2.735388e-002  1.000000e-003
    endloop
  endfacet
  facet normal  0.000000e+000  0.000000e+000  1.000000e+000
    outer loop
      vertex -1.422368e-002  2.603628e-002  1.000000e-003
      vertex  1.148766e-002  2.735388e-002  1.000000e-003
      vertex  5.112831e-003  2.922431e-002  1.000000e-003
    endloop
  endfacet
  facet normal  0.000000e+000  0.000000e+000  1.000000e+000
    outer loop
      vertex -1.422368e-002  2.603628e-002  1.000000e-003
      vertex  5.112831e-003  2.922431e-002  1.000000e-003
      vertex -8.073449e-003  2.854856e-002  1.000000e-003
    endloop
  endfacet
  facet normal  -0.000000e+000  0.000000e+000  1.000000e+000
    outer loop
      vertex  1.728645e-002  2.411181e-002  1.000000e-003
      vertex -1.966069e-002  2.221843e-002  1.000000e-003
      vertex  2.221843e-002  1.966069e-002  1.000000e-003
    endloop
  endfacet
  facet normal  0.000000e+000  0.000000e+000  9.999999e-001
    outer loop
      vertex  2.221843e-002  1.966069e-002  1.000000e-003
      vertex -1.966069e-002  2.221843e-002  1.000000e-003
      vertex -2.411181e-002  1.728645e-002  1.000000e-003
    endloop
  endfacet
  facet normal  -0.000000e+000  0.000000e+000  1.000000e+000
    outer loop
      vertex  2.221843e-002  1.966069e-002  1.000000e-003
      vertex -2.411181e-002  1.728645e-002  1.000000e-003
      vertex  2.603628e-002  1.422368e-002  1.000000e-003
    endloop
  endfacet
  facet normal  0.000000e+000  0.000000e+000  1.000000e+000
    outer loop
      vertex  2.603628e-002  1.422368e-002  1.000000e-003
      vertex -2.411181e-002  1.728645e-002  1.000000e-003
      vertex -2.735388e-002  1.148766e-002  1.000000e-003
    endloop
  endfacet
  facet normal  -0.000000e+000  0.000000e+000  1.000000e+000
    outer loop
      vertex  2.603628e-002  1.422368e-002  1.000000e-003
      vertex -2.735388e-002  1.148766e-002  1.000000e-003
      vertex  2.854856e-002  8.073449e-003  1.000000e-003
    endloop
  endfacet
  facet normal  0.000000e+000  0.000000e+000  1.000000e+000
    outer loop
      vertex  2.854856e-002  8.073449e-003  1.000000e-003
      vertex -2.735388e-002  1.148766e-002  1.000000e-003
      vertex -2.922431e-002  5.112831e-003  1.000000e-003
    endloop
  endfacet
  facet normal  -0.000000e+000  0.000000e+000  9.999999e-001
    outer loop
      vertex  2.854856e-002  8.073449e-003  1.000000e-003
      vertex -2.922431e-002  5.112831e-003  1.000000e-003
      vertex  2.962931e-002  1.518378e-003  1.000000e-003
    endloop
  endfacet
  facet normal  0.000000e+000  0.000000e+000  1.000000e+000
    outer loop
      vertex  2.962931e-002  1.518378e-003  1.000000e-003
      vertex -2.922431e-002  5.112831e-003  1.000000e-003
      vertex -2.962931e-002 -1.518378e-003  1.000000e-003
    endloop
  endfacet
  facet normal  -0.000000e+000  0.000000e+000  1.000000e+000
    outer loop
      vertex  2.962931e-002  1.518378e-003  1.000000e-003
      vertex -2.962931e-002 -1.518378e-003  1.000000e-003
      vertex  2.922431e-002 -5.112831e-003  1.000000e-003
    endloop
  endfacet
  facet normal  0.000000e+000  0.000000e+000  9.999999e-001
    outer loop
      vertex  2.922431e-002 -5.112831e-003  1.000000e-003
      vertex -2.962931e-002 -1.518378e-003  1.000000e-003
      vertex -2.854856e-002 -8.073449e-003  1.000000e-003
    endloop
  endfacet
  facet normal  -0.000000e+000  0.000000e+000  1.000000e+000
    outer loop
      vertex  2.922431e-002 -5.112831e-003  1.000000e-003
      vertex -2.854856e-002 -8.073449e-003  1.000000e-003
      vertex  2.735388e-002 -1.148766e-002  1.000000e-003
    endloop
  endfacet
  facet normal  0.000000e+000  0.000000e+000  1.000000e+000
    outer loop
      vertex  2.735388e-002 -1.148766e-002  1.000000e-003
      vertex -2.854856e-002 -8.073449e-003  1.000000e-003
      vertex -2.603628e-002 -1.422368e-002  1.000000e-003
    endloop
  endfacet
  facet normal  -0.000000e+000  0.000000e+000  1.000000e+000
    outer loop
      vertex  2.735388e-002 -1.148766e-002  1.000000e-003
      vertex -2.603628e-002 -1.422368e-002  1.000000e-003
      vertex  2.411181e-002 -1.728645e-002  1.000000e-003
    endloop
  endfacet
  facet normal  0.000000e+000  0.000000e+000  1.000000e+000
    outer loop
      vertex  2.411181e-002 -1.728645e-002  1.000000e-003
      vertex -2.603628e-002 -1.422368e-002  1.000000e-003
      vertex -2.221843e-002 -1.966069e-002  1.000000e-003
    endloop
  endfacet
  facet normal  -0.000000e+000  0.000000e+000  9.999999e-001
    outer loop
      vertex  2.411181e-002 -1.728645e-002  1.000000e-003
      vertex -2.221843e-002 -1.966069e-002  1.000000e-003
      vertex  1.966069e-002 -2.221843e-002  1.000000e-003
    endloop
  endfacet
  facet normal  0.000000e+000  0.000000e+000  1.000000e+000
    outer loop
      vertex  1.966069e-002 -2.221843e-002  1.000000e-003
      vertex -2.221843e-002 -1.966069e-002  1.000000e-003
      vertex -1.728645e-002 -2.411181e-002  1.000000e-003
    endloop
  endfacet
  facet normal  -0.000000e+000  0.000000e+000  1.000000e+000
    outer loop
      vertex  1.966069e-002 -2.221843e-002  1.000000e-003
      vertex -1.728645e-002 -2.411181e-002  1.000000e-003
      vertex  1.422368e-002 -2.603628e-002  1.000000e-003
    endloop
  endfacet
  facet normal  0.000000e+000  0.000000e+000  1.000000e+000
    outer loop
      vertex  1.422368e-002 -2.603628e-002  1.000000e-003
      vertex -1.728645e-002 -2.411181e-002  1.000000e-003
      vertex -1.148766e-002 -2.735388e-002  1.000000e-003
    endloop
  endfacet
  facet normal  -0.000000e+000  0.000000e+000  1.000000e+000
    outer loop
      vertex  1.422368e-002 -2.603628e-002  1.000000e-003
      vertex -1.148766e-002 -2.735388e-002  1.000000e-003
      vertex  8.073449e-003 -2.854856e-002  1.000000e-003
    endloop
  endfacet
  facet normal  0.000000e+000  0.000000e+000  1.000000e+000
    outer loop
      vertex -5.112831e-003 -2.922431e-002  1.000000e-003
      vertex  1.518378e-003 -2.962931e-002  1.000000e-003
      vertex -1.148766e-002 -2.735388e-002  1.000000e-003
    endloop
  endfacet
  facet normal  0.000000e+000  0.000000e+000  1.000000e+000
    outer loop
      vertex -1.148766e-002 -2.735388e-002  1.000000e-003
      vertex  1.518378e-003 -2.962931e-002  1.000000e-003
      vertex  8.073449e-003 -2.854856e-002  1.000000e-003
    endloop
  endfacet
  facet normal  0.000000e+000  0.000000e+000  1.000000e+000
    outer loop
      vertex -9.448221e-003 -4.706093e-002  1.100000e-001
      vertex -9.645059e-003 -4.804137e-002  1.100000e-001
      vertex -1.132636e-003 -4.798663e-002  1.100000e-001
    endloop
  endfacet
  facet normal  0.000000e+000  0.000000e+000  1.000000e+000
    outer loop
      vertex -1.132636e-003 -4.798663e-002  1.100000e-001
      vertex -9.645059e-003 -4.804137e-002  1.100000e-001
      vertex -1.156233e-003 -4.898636e-002  1.100000e-001
    endloop
  endfacet
  facet normal  0.000000e+000  0.000000e+000  1.000000e+000
    outer loop
      vertex -1.132636e-003 -4.798663e-002  1.100000e-001
      vertex -1.156233e-003 -4.898636e-002  1.100000e-001
      vertex  7.217363e-003 -4.745429e-002  1.100000e-001
    endloop
  endfacet
  facet normal  0.000000e+000  0.000000e+000  1.000000e+000
    outer loop
      vertex  7.217363e-003 -4.745429e-002  1.100000e-001
      vertex -1.156233e-003 -4.898636e-002  1.100000e-001
      vertex  7.367725e-003 -4.844292e-002  1.100000e-001
    endloop
  endfacet
  facet normal  0.000000e+000  -0.000000e+000  1.000000e+000
    outer loop
      vertex  7.217363e-003 -4.745429e-002  1.100000e-001
      vertex  7.367725e-003 -4.844292e-002  1.100000e-001
      vertex  1.534807e-002 -4.548007e-002  1.100000e-001
    endloop
  endfacet
  facet normal  0.000000e+000  0.000000e+000  1.000000e+000
    outer loop
      vertex  1.534807e-002 -4.548007e-002  1.100000e-001
      vertex  7.367725e-003 -4.844292e-002  1.100000e-001
      vertex  1.566782e-002 -4.642758e-002  1.100000e-001
    endloop
  endfacet
  facet normal  0.000000e+000  -0.000000e+000  1.000000e+000
    outer loop
      vertex  1.534807e-002 -4.548007e-002  1.100000e-001
      vertex  1.566782e-002 -4.642758e-002  1.100000e-001
      vertex  2.301243e-002 -4.212397e-002  1.100000e-001
    endloop
  endfacet
  facet normal  0.000000e+000  0.000000e+000  1.000000e+000
    outer loop
      vertex  2.301243e-002 -4.212397e-002  1.100000e-001
      vertex  1.566782e-002 -4.642758e-002  1.100000e-001
      vertex  2.349185e-002 -4.300155e-002  1.100000e-001
    endloop
  endfacet
  facet normal  0.000000e+000  -0.000000e+000  1.000000e+000
    outer loop
      vertex  2.301243e-002 -4.212397e-002  1.100000e-001
      vertex  2.349185e-002 -4.300155e-002  1.100000e-001
      vertex  2.997757e-002 -3.748794e-002  1.100000e-001
    endloop
  endfacet
  facet normal  0.000000e+000  0.000000e+000  1.000000e+000
    outer loop
      vertex  2.997757e-002 -3.748794e-002  1.100000e-001
      vertex  2.349185e-002 -4.300155e-002  1.100000e-001
      vertex  3.060210e-002 -3.826894e-002  1.100000e-001
    endloop
  endfacet
  facet normal  0.000000e+000  -0.000000e+000  1.000000e+000
    outer loop
      vertex  2.997757e-002 -3.748794e-002  1.100000e-001
      vertex  3.060210e-002 -3.826894e-002  1.100000e-001
      vertex  3.603185e-002 -3.171286e-002  1.100000e-001
    endloop
  endfacet
  facet normal  0.000000e+000  0.000000e+000  1.000000e+000
    outer loop
      vertex  3.603185e-002 -3.171286e-002  1.100000e-001
      vertex  3.060210e-002 -3.826894e-002  1.100000e-001
      vertex  3.678251e-002 -3.237355e-002  1.100000e-001
    endloop
  endfacet
  facet normal  0.000000e+000  -0.000000e+000  1.000000e+000
    outer loop
      vertex  3.603185e-002 -3.171286e-002  1.100000e-001
      vertex  3.678251e-002 -3.237355e-002  1.100000e-001
      vertex  4.099133e-002 -2.497421e-002  1.100000e-001
    endloop
  endfacet
  facet normal  0.000000e+000  0.000000e+000  1.000000e+000
    outer loop
      vertex  4.099133e-002 -2.497421e-002  1.100000e-001
      vertex  3.678251e-002 -3.237355e-002  1.100000e-001
      vertex  4.184531e-002 -2.549451e-002  1.100000e-001
    endloop
  endfacet
  facet normal  0.000000e+000  -0.000000e+000  1.000000e+000
    outer loop
      vertex  4.099133e-002 -2.497421e-002  1.100000e-001
      vertex  4.184531e-002 -2.549451e-002  1.100000e-001
      vertex  4.470531e-002 -1.747673e-002  1.100000e-001
    endloop
  endfacet
  facet normal  0.000000e+000  0.000000e+000  1.000000e+000
    outer loop
      vertex  4.470531e-002 -1.747673e-002  1.100000e-001
      vertex  4.184531e-002 -2.549451e-002  1.100000e-001
      vertex  4.563667e-002 -1.784083e-002  1.100000e-001
    endloop
  endfacet
  facet normal  0.000000e+000  -0.000000e+000  1.000000e+000
    outer loop
      vertex  4.470531e-002 -1.747673e-002  1.100000e-001
      vertex  4.563667e-002 -1.784083e-002  1.100000e-001
      vertex  4.706093e-002 -9.448221e-003  1.100000e-001
    endloop
  endfacet
  facet normal  0.000000e+000  0.000000e+000  1.000000e+000
    outer loop
      vertex  4.706093e-002 -9.448221e-003  1.100000e-001
      vertex  4.563667e-002 -1.784083e-002  1.100000e-001
      vertex  4.804137e-002 -9.645059e-003  1.100000e-001
    endloop
  endfacet
  facet normal  0.000000e+000  0.000000e+000  1.000000e+000
    outer loop
      vertex  4.706093e-002 -9.448221e-003  1.100000e-001
      vertex  4.804137e-002 -9.645059e-003  1.100000e-001
      vertex  4.798663e-002 -1.132636e-003  1.100000e-001
    endloop
  endfacet
  facet normal  0.000000e+000  0.000000e+000  1.000000e+000
    outer loop
      vertex  4.798663e-002 -1.132636e-003  1.100000e-001
      vertex  4.804137e-002 -9.645059e-003  1.100000e-001
      vertex  4.898636e-002 -1.156233e-003  1.100000e-001
    endloop
  endfacet
  facet normal  0.000000e+000  0.000000e+000  1.000000e+000
    outer loop
      vertex  4.798663e-002 -1.132636e-003  1.100000e-001
      vertex  4.898636e-002 -1.156233e-003  1.100000e-001
      vertex  4.745429e-002  7.217363e-003  1.100000e-001
    endloop
  endfacet
  facet normal  -0.000000e+000  0.000000e+000  1.000000e+000
    outer loop
      vertex  4.745429e-002  7.217363e-003  1.100000e-001
      vertex  4.898636e-002 -1.156233e-003  1.100000e-001
      vertex  4.844292e-002  7.367725e-003  1.100000e-001
    endloop
  endfacet
  facet normal  0.000000e+000  0.000000e+000  1.000000e+000
    outer loop
      vertex  4.745429e-002  7.217363e-003  1.100000e-001
      vertex  4.844292e-002  7.367725e-003  1.100000e-001
      vertex  4.548007e-002  1.534807e-002  1.100000e-001
    endloop
  endfacet
  facet normal  -0.000000e+000  0.000000e+000  1.000000e+000
    outer loop
      vertex  4.548007e-002  1.534807e-002  1.100000e-001
      vertex  4.844292e-002  7.367725e-003  1.100000e-001
      vertex  4.642758e-002  1.566782e-002  1.100000e-001
    endloop
  endfacet
  facet normal  0.000000e+000  0.000000e+000  1.000000e+000
    outer loop
      vertex  4.548007e-002  1.534807e-002  1.100000e-001
      vertex  4.642758e-002  1.566782e-002  1.100000e-001
      vertex  4.212397e-002  2.301243e-002  1.100000e-001
    endloop
  endfacet
  facet normal  -0.000000e+000  0.000000e+000  1.000000e+000
    outer loop
      vertex  4.212397e-002  2.301243e-002  1.100000e-001
      vertex  4.642758e-002  1.566782e-002  1.100000e-001
      vertex  4.300155e-002  2.349185e-002  1.100000e-001
    endloop
  endfacet
  facet normal  0.000000e+000  0.000000e+000  1.000000e+000
    outer loop
      vertex  4.212397e-002  2.301243e-002  1.100000e-001
      vertex  4.300155e-002  2.349185e-002  1.100000e-001
      vertex  3.748794e-002  2.997757e-002  1.100000e-001
    endloop
  endfacet
  facet normal  -0.000000e+000  0.000000e+000  1.000000e+000
    outer loop
      vertex  3.748794e-002  2.997757e-002  1.100000e-001
      vertex  4.300155e-002  2.349185e-002  1.100000e-001
      vertex  3.826894e-002  3.060210e-002  1.100000e-001
    endloop
  endfacet
  facet normal  0.000000e+000  0.000000e+000  1.000000e+000
    outer loop
      vertex  3.748794e-002  2.997757e-002  1.100000e-001
      vertex  3.826894e-002  3.060210e-002  1.100000e-001
      vertex  3.171286e-002  3.603185e-002  1.100000e-001
    endloop
  endfacet
  facet normal  -0.000000e+000  0.000000e+000  1.000000e+000
    outer loop
      vertex  3.171286e-002  3.603185e-002  1.100000e-001
      vertex  3.826894e-002  3.060210e-002  1.100000e-001
      vertex  3.237355e-002  3.678251e-002  1.100000e-001
    endloop
  endfacet
  facet normal  0.000000e+000  0.000000e+000  1.000000e+000
    outer loop
      vertex  3.171286e-002  3.603185e-002  1.100000e-001
      vertex  3.237355e-002  3.678251e-002  1.100000e-001
      vertex  2.497421e-002  4.099133e-002  1.100000e-001
    endloop
  endfacet
  facet normal  -0.000000e+000  0.000000e+000  1.000000e+000
    outer loop
      vertex  2.497421e-002  4.099133e-002  1.100000e-001
      vertex  3.237355e-002  3.678251e-002  1.100000e-001
      vertex  2.549451e-002  4.184531e-002  1.100000e-001
    endloop
  endfacet
  facet normal  0.000000e+000  0.000000e+000  1.000000e+000
    outer loop
      vertex  2.497421e-002  4.099133e-002  1.100000e-001
      vertex  2.549451e-002  4.184531e-002  1.100000e-001
      vertex  1.747673e-002  4.470531e-002  1.100000e-001
    endloop
  endfacet
  facet normal  -0.000000e+000  0.000000e+000  1.000000e+000
    outer loop
      vertex  1.747673e-002  4.470531e-002  1.100000e-001
      vertex  2.549451e-002  4.184531e-002  1.100000e-001
      vertex  1.784083e-002  4.563667e-002  1.100000e-001
    endloop
  endfacet
  facet normal  0.000000e+000  0.000000e+000  1.000000e+000
    outer loop
      vertex  1.747673e-002  4.470531e-002  1.100000e-001
      vertex  1.784083e-002  4.563667e-002  1.100000e-001
      vertex  9.448221e-003  4.706093e-002  1.100000e-001
    endloop
  endfacet
  facet normal  -0.000000e+000  0.000000e+000  1.000000e+000
    outer loop
      vertex  9.448221e-003  4.706093e-002  1.100000e-001
      vertex  1.784083e-002  4.563667e-002  1.100000e-001
      vertex  9.645059e-003  4.804137e-002  1.100000e-001
    endloop
  endfacet
  facet normal  0.000000e+000  0.000000e+000  1.000000e+000
    outer loop
      vertex  9.448221e-003  4.706093e-002  1.100000e-001
      vertex  9.645059e-003  4.804137e-002  1.100000e-001
      vertex  1.132636e-003  4.798663e-002  1.100000e-001
    endloop
  endfacet
  facet normal  0.000000e+000  0.000000e+000  1.000000e+000
    outer loop
      vertex  9.645059e-003  4.804137e-002  1.100000e-001
      vertex  1.156233e-003  4.898636e-002  1.100000e-001
      vertex  1.132636e-003  4.798663e-002  1.100000e-001
    endloop
  endfacet
  facet normal  0.000000e+000  -0.000000e+000  1.000000e+000
    outer loop
      vertex  1.132636e-003  4.798663e-002  1.100000e-001
      vertex  1.156233e-003  4.898636e-002  1.100000e-001
      vertex -7.367725e-003  4.844292e-002  1.100000e-001
    endloop
  endfacet
  facet normal  0.000000e+000  0.000000e+000  1.000000e+000
    outer loop
      vertex  1.132636e-003  4.798663e-002  1.100000e-001
      vertex -7.367725e-003  4.844292e-002  1.100000e-001
      vertex -7.217363e-003  4.745429e-002  1.100000e-001
    endloop
  endfacet
  facet normal  0.000000e+000  0.000000e+000  1.000000e+000
    outer loop
      vertex -9.645059e-003 -4.804137e-002  1.100000e-001
      vertex -9.448221e-003 -4.706093e-002  1.100000e-001
      vertex -1.784083e-002 -4.563667e-002  1.100000e-001
    endloop
  endfacet
  facet normal  -0.000000e+000  0.000000e+000  1.000000e+000
    outer loop
      vertex -1.784083e-002 -4.563667e-002  1.100000e-001
      vertex -9.448221e-003 -4.706093e-002  1.100000e-001
      vertex -1.747673e-002 -4.470531e-002  1.100000e-001
    endloop
  endfacet
  facet normal  0.000000e+000  0.000000e+000  1.000000e+000
    outer loop
      vertex -1.784083e-002 -4.563667e-002  1.100000e-001
      vertex -1.747673e-002 -4.470531e-002  1.100000e-001
      vertex -2.549451e-002 -4.184531e-002  1.100000e-001
    endloop
  endfacet
  facet normal  -0.000000e+000  0.000000e+000  1.000000e+000
    outer loop
      vertex -2.549451e-002 -4.184531e-002  1.100000e-001
      vertex -1.747673e-002 -4.470531e-002  1.100000e-001
      vertex -2.497421e-002 -4.099133e-002  1.100000e-001
    endloop
  endfacet
  facet normal  0.000000e+000  0.000000e+000  1.000000e+000
    outer loop
      vertex -2.549451e-002 -4.184531e-002  1.100000e-001
      vertex -2.497421e-002 -4.099133e-002  1.100000e-001
      vertex -3.237355e-002 -3.678251e-002  1.100000e-001
    endloop
  endfacet
  facet normal  -0.000000e+000  0.000000e+000  1.000000e+000
    outer loop
      vertex -3.237355e-002 -3.678251e-002  1.100000e-001
      vertex -2.497421e-002 -4.099133e-002  1.100000e-001
      vertex -3.171286e-002 -3.603185e-002  1.100000e-001
    endloop
  endfacet
  facet normal  0.000000e+000  0.000000e+000  1.000000e+000
    outer loop
      vertex -3.237355e-002 -3.678251e-002  1.100000e-001
      vertex -3.171286e-002 -3.603185e-002  1.100000e-001
      vertex -3.826894e-002 -3.060210e-002  1.100000e-001
    endloop
  endfacet
  facet normal  -0.000000e+000  0.000000e+000  1.000000e+000
    outer loop
      vertex -3.826894e-002 -3.060210e-002  1.100000e-001
      vertex -3.171286e-002 -3.603185e-002  1.100000e-001
      vertex -3.748794e-002 -2.997757e-002  1.100000e-001
    endloop
  endfacet
  facet normal  0.000000e+000  0.000000e+000  1.000000e+000
    outer loop
      vertex -3.826894e-002 -3.060210e-002  1.100000e-001
      vertex -3.748794e-002 -2.997757e-002  1.100000e-001
      vertex -4.300155e-002 -2.349185e-002  1.100000e-001
    endloop
  endfacet
  facet normal  -0.000000e+000  0.000000e+000  1.000000e+000
    outer loop
      vertex -4.300155e-002 -2.349185e-002  1.100000e-001
      vertex -3.748794e-002 -2.997757e-002  1.100000e-001
      vertex -4.212397e-002 -2.301243e-002  1.100000e-001
    endloop
  endfacet
  facet normal  0.000000e+000  0.000000e+000  1.000000e+000
    outer loop
      vertex -4.300155e-002 -2.349185e-002  1.100000e-001
      vertex -4.212397e-002 -2.301243e-002  1.100000e-001
      vertex -4.642758e-002 -1.566782e-002  1.100000e-001
    endloop
  endfacet
  facet normal  -0.000000e+000  0.000000e+000  1.000000e+000
    outer loop
      vertex -4.642758e-002 -1.566782e-002  1.100000e-001
      vertex -4.212397e-002 -2.301243e-002  1.100000e-001
      vertex -4.548007e-002 -1.534807e-002  1.100000e-001
    endloop
  endfacet
  facet normal  0.000000e+000  0.000000e+000  1.000000e+000
    outer loop
      vertex -4.642758e-002 -1.566782e-002  1.100000e-001
      vertex -4.548007e-002 -1.534807e-002  1.100000e-001
      vertex -4.844292e-002 -7.367725e-003  1.100000e-001
    endloop
  endfacet
  facet normal  -0.000000e+000  0.000000e+000  1.000000e+000
    outer loop
      vertex -4.844292e-002 -7.367725e-003  1.100000e-001
      vertex -4.548007e-002 -1.534807e-002  1.100000e-001
      vertex -4.745429e-002 -7.217363e-003  1.100000e-001
    endloop
  endfacet
  facet normal  0.000000e+000  0.000000e+000  1.000000e+000
    outer loop
      vertex -4.844292e-002 -7.367725e-003  1.100000e-001
      vertex -4.745429e-002 -7.217363e-003  1.100000e-001
      vertex -4.898636e-002  1.156233e-003  1.100000e-001
    endloop
  endfacet
  facet normal  0.000000e+000  0.000000e+000  1.000000e+000
    outer loop
      vertex -4.898636e-002  1.156233e-003  1.100000e-001
      vertex -4.745429e-002 -7.217363e-003  1.100000e-001
      vertex -4.798663e-002  1.132636e-003  1.100000e-001
    endloop
  endfacet
  facet normal  0.000000e+000  0.000000e+000  1.000000e+000
    outer loop
      vertex -4.898636e-002  1.156233e-003  1.100000e-001
      vertex -4.798663e-002  1.132636e-003  1.100000e-001
      vertex -4.804137e-002  9.645059e-003  1.100000e-001
    endloop
  endfacet
  facet normal  0.000000e+000  0.000000e+000  1.000000e+000
    outer loop
      vertex -4.804137e-002  9.645059e-003  1.100000e-001
      vertex -4.798663e-002  1.132636e-003  1.100000e-001
      vertex -4.706093e-002  9.448221e-003  1.100000e-001
    endloop
  endfacet
  facet normal  0.000000e+000  -0.000000e+000  1.000000e+000
    outer loop
      vertex -4.804137e-002  9.645059e-003  1.100000e-001
      vertex -4.706093e-002  9.448221e-003  1.100000e-001
      vertex -4.563667e-002  1.784083e-002  1.100000e-001
    endloop
  endfacet
  facet normal  0.000000e+000  0.000000e+000  1.000000e+000
    outer loop
      vertex -4.563667e-002  1.784083e-002  1.100000e-001
      vertex -4.706093e-002  9.448221e-003  1.100000e-001
      vertex -4.470531e-002  1.747673e-002  1.100000e-001
    endloop
  endfacet
  facet normal  0.000000e+000  -0.000000e+000  1.000000e+000
    outer loop
      vertex -4.563667e-002  1.784083e-002  1.100000e-001
      vertex -4.470531e-002  1.747673e-002  1.100000e-001
      vertex -4.184531e-002  2.549451e-002  1.100000e-001
    endloop
  endfacet
  facet normal  0.000000e+000  0.000000e+000  1.000000e+000
    outer loop
      vertex -4.184531e-002  2.549451e-002  1.100000e-001
      vertex -4.470531e-002  1.747673e-002  1.100000e-001
      vertex -4.099133e-002  2.497421e-002  1.100000e-001
    endloop
  endfacet
  facet normal  0.000000e+000  -0.000000e+000  1.000000e+000
    outer loop
      vertex -4.184531e-002  2.549451e-002  1.100000e-001
      vertex -4.099133e-002  2.497421e-002  1.100000e-001
      vertex -3.678251e-002  3.237355e-002  1.100000e-001
    endloop
  endfacet
  facet normal  0.000000e+000  0.000000e+000  1.000000e+000
    outer loop
      vertex -3.678251e-002  3.237355e-002  1.100000e-001
      vertex -4.099133e-002  2.497421e-002  1.100000e-001
      vertex -3.603185e-002  3.171286e-002  1.100000e-001
    endloop
  endfacet
  facet normal  0.000000e+000  -0.000000e+000  1.000000e+000
    outer loop
      vertex -3.678251e-002  3.237355e-002  1.100000e-001
      vertex -3.603185e-002  3.171286e-002  1.100000e-001
      vertex -3.060210e-002  3.826894e-002  1.100000e-001
    endloop
  endfacet
  facet normal  0.000000e+000  0.000000e+000  1.000000e+000
    outer loop
      vertex -3.060210e-002  3.826894e-002  1.100000e-001
      vertex -3.603185e-002  3.171286e-002  1.100000e-001
      vertex -2.997757e-002  3.748794e-002  1.100000e-001
    endloop
  endfacet
  facet normal  0.000000e+000  -0.000000e+000  1.000000e+000
    outer loop
      vertex -3.060210e-002  3.826894e-002  1.100000e-001
      vertex -2.997757e-002  3.748794e-002  1.100000e-001
      vertex -2.349185e-002  4.300155e-002  1.100000e-001
    endloop
  endfacet
  facet normal  0.000000e+000  0.000000e+000  1.000000e+000
    outer loop
      vertex -2.349185e-002  4.300155e-002  1.100000e-001
      vertex -2.997757e-002  3.748794e-002  1.100000e-001
      vertex -2.301243e-002  4.212397e-002  1.100000e-001
    endloop
  endfacet
  facet normal  0.000000e+000  -0.000000e+000  1.000000e+000
    outer loop
      vertex -2.349185e-002  4.300155e-002  1.100000e-001
      vertex -2.301243e-002  4.212397e-002  1.100000e-001
      vertex -1.566782e-002  4.642758e-002  1.100000e-001
    endloop
  endfacet
  facet normal  0.000000e+000  0.000000e+000  1.000000e+000
    outer loop
      vertex -1.566782e-002  4.642758e-002  1.100000e-001
      vertex -2.301243e-002  4.212397e-002  1.100000e-001
      vertex -1.534807e-002  4.548007e-002  1.100000e-001
    endloop
  endfacet
  facet normal  0.000000e+000  -0.000000e+000  1.000000e+000
    outer loop
      vertex -1.566782e-002  4.642758e-002  1.100000e-001
      vertex -1.534807e-002  4.548007e-002  1.100000e-001
      vertex -7.367725e-003  4.844292e-002  1.100000e-001
    endloop
  endfacet
  facet normal  0.000000e+000  0.000000e+000  1.000000e+000
    outer loop
      vertex -7.367725e-003  4.844292e-002  1.100000e-001
      vertex -1.534807e-002  4.548007e-002  1.100000e-001
      vertex -7.217363e-003  4.745429e-002  1.100000e-001
    endloop
  endfacet
  facet normal  -0.000000e+000  0.000000e+000 -1.000000e+000
    outer loop
      vertex -1.560950e-003  3.046003e-002  0.000000e+000
      vertex  5.256181e-003  3.004368e-002  0.000000e+000
      vertex -8.299808e-003  2.934899e-002  0.000000e+000
    endloop
  endfacet
  facet normal  1.589761e-016 -3.102222e-015 -1.000000e+000
    outer loop
      vertex -1.462248e-002  2.676627e-002  7.007021e-018
      vertex -8.299808e-003  2.934899e-002  0.000000e+000
      vertex  5.256181e-003  3.004368e-002  0.000000e+000
    endloop
  endfacet
  facet normal -2.256777e-016 -7.691596e-016 -9.999999e-001
    outer loop
      vertex -1.462248e-002  2.676627e-002  7.007021e-018
      vertex  5.256181e-003  3.004368e-002  0.000000e+000
      vertex  1.180975e-002  2.812081e-002  0.000000e+000
    endloop
  endfacet
  facet normal -2.428358e-016 -4.343389e-016 -9.999999e-001
    outer loop
      vertex -1.462248e-002  2.676627e-002  7.007021e-018
      vertex  1.180975e-002  2.812081e-002  0.000000e+000
      vertex  1.777112e-002  2.478785e-002  0.000000e+000
    endloop
  endfacet
  facet normal -9.869040e-017  1.925821e-015 -1.000000e+000
    outer loop
      vertex -1.462248e-002  2.676627e-002  7.007021e-018
      vertex  1.777112e-002  2.478785e-002  0.000000e+000
      vertex -2.021192e-002  2.284138e-002  0.000000e+000
    endloop
  endfacet
  facet normal  0.000000e+000  0.000000e+000 -1.000000e+000
    outer loop
      vertex -2.021192e-002  2.284138e-002  0.000000e+000
      vertex  1.777112e-002  2.478785e-002  0.000000e+000
      vertex -2.478785e-002  1.777112e-002  0.000000e+000
    endloop
  endfacet
  facet normal  0.000000e+000  0.000000e+000 -9.999999e-001
    outer loop
      vertex -2.478785e-002  1.777112e-002  0.000000e+000
      vertex  1.777112e-002  2.478785e-002  0.000000e+000
      vertex  2.284138e-002  2.021192e-002  0.000000e+000
    endloop
  endfacet
  facet normal  0.000000e+000  0.000000e+000 -1.000000e+000
    outer loop
      vertex -2.478785e-002  1.777112e-002  0.000000e+000
      vertex  2.284138e-002  2.021192e-002  0.000000e+000
      vertex -2.812081e-002  1.180975e-002  0.000000e+000
    endloop
  endfacet
  facet normal  0.000000e+000  0.000000e+000 -1.000000e+000
    outer loop
      vertex -2.812081e-002  1.180975e-002  0.000000e+000
      vertex  2.284138e-002  2.021192e-002  0.000000e+000
      vertex  2.676627e-002  1.462248e-002  0.000000e+000
    endloop
  endfacet
  facet normal  0.000000e+000  0.000000e+000 -1.000000e+000
    outer loop
      vertex -2.812081e-002  1.180975e-002  0.000000e+000
      vertex  2.676627e-002  1.462248e-002  0.000000e+000
      vertex -3.004368e-002  5.256181e-003  0.000000e+000
    endloop
  endfacet
  facet normal  0.000000e+000  0.000000e+000 -1.000000e+000
    outer loop
      vertex -3.004368e-002  5.256181e-003  0.000000e+000
      vertex  2.676627e-002  1.462248e-002  0.000000e+000
      vertex  2.934899e-002  8.299808e-003  0.000000e+000
    endloop
  endfacet
  facet normal  0.000000e+000  0.000000e+000 -1.000000e+000
    outer loop
      vertex -3.004368e-002  5.256181e-003  0.000000e+000
      vertex  2.934899e-002  8.299808e-003  0.000000e+000
      vertex -3.046003e-002 -1.560950e-003  0.000000e+000
    endloop
  endfacet
  facet normal  0.000000e+000  0.000000e+000 -1.000000e+000
    outer loop
      vertex -3.046003e-002 -1.560950e-003  0.000000e+000
      vertex  2.934899e-002  8.299808e-003  0.000000e+000
      vertex  3.046003e-002  1.560950e-003  0.000000e+000
    endloop
  endfacet
  facet normal  0.000000e+000  0.000000e+000 -1.000000e+000
    outer loop
      vertex -3.046003e-002 -1.560950e-003  0.000000e+000
      vertex  3.046003e-002  1.560950e-003  0.000000e+000
      vertex -2.934899e-002 -8.299808e-003  0.000000e+000
    endloop
  endfacet
  facet normal  0.000000e+000  0.000000e+000 -1.000000e+000
    outer loop
      vertex -2.934899e-002 -8.299808e-003  0.000000e+000
      vertex  3.046003e-002  1.560950e-003  0.000000e+000
      vertex  3.004368e-002 -5.256181e-003  0.000000e+000
    endloop
  endfacet
  facet normal  0.000000e+000  0.000000e+000 -1.000000e+000
    outer loop
      vertex -2.934899e-002 -8.299808e-003  0.000000e+000
      vertex  3.004368e-002 -5.256181e-003  0.000000e+000
      vertex -2.676627e-002 -1.462248e-002  0.000000e+000
    endloop
  endfacet
  facet normal  0.000000e+000  0.000000e+000 -1.000000e+000
    outer loop
      vertex -2.676627e-002 -1.462248e-002  0.000000e+000
      vertex  3.004368e-002 -5.256181e-003  0.000000e+000
      vertex  2.812081e-002 -1.180975e-002  0.000000e+000
    endloop
  endfacet
  facet normal  0.000000e+000  0.000000e+000 -1.000000e+000
    outer loop
      vertex -2.676627e-002 -1.462248e-002  0.000000e+000
      vertex  2.812081e-002 -1.180975e-002  0.000000e+000
      vertex -2.284138e-002 -2.021192e-002  0.000000e+000
    endloop
  endfacet
  facet normal  0.000000e+000  0.000000e+000 -1.000000e+000
    outer loop
      vertex -2.284138e-002 -2.021192e-002  0.000000e+000
      vertex  2.812081e-002 -1.180975e-002  0.000000e+000
      vertex  2.478785e-002 -1.777112e-002  0.000000e+000
    endloop
  endfacet
  facet normal  0.000000e+000  0.000000e+000 -9.999999e-001
    outer loop
      vertex -2.284138e-002 -2.021192e-002  0.000000e+000
      vertex  2.478785e-002 -1.777112e-002  0.000000e+000
      vertex -1.777112e-002 -2.478785e-002  0.000000e+000
    endloop
  endfacet
  facet normal  0.000000e+000  0.000000e+000 -1.000000e+000
    outer loop
      vertex -1.777112e-002 -2.478785e-002  0.000000e+000
      vertex  2.478785e-002 -1.777112e-002  0.000000e+000
      vertex  2.021192e-002 -2.284138e-002  0.000000e+000
    endloop
  endfacet
  facet normal  0.000000e+000  0.000000e+000 -1.000000e+000
    outer loop
      vertex -1.777112e-002 -2.478785e-002  0.000000e+000
      vertex  2.021192e-002 -2.284138e-002  0.000000e+000
      vertex -1.180975e-002 -2.812081e-002  0.000000e+000
    endloop
  endfacet
  facet normal  3.846536e-016 -2.333061e-015 -1.000000e+000
    outer loop
      vertex -1.180975e-002 -2.812081e-002  0.000000e+000
      vertex  2.021192e-002 -2.284138e-002  0.000000e+000
      vertex  1.462248e-002 -2.676627e-002  7.007021e-018
    endloop
  endfacet
  facet normal  1.441455e-016  2.360160e-015 -1.000000e+000
    outer loop
      vertex -1.180975e-002 -2.812081e-002  0.000000e+000
      vertex  1.462248e-002 -2.676627e-002  7.007021e-018
      vertex  8.299808e-003 -2.934899e-002  0.000000e+000
    endloop
  endfacet
  facet normal  0.000000e+000  0.000000e+000 -1.000000e+000
    outer loop
      vertex  1.560950e-003 -3.046003e-002  0.000000e+000
      vertex -5.256181e-003 -3.004368e-002  0.000000e+000
      vertex  8.299808e-003 -2.934899e-002  0.000000e+000
    endloop
  endfacet
  facet normal  -0.000000e+000  0.000000e+000 -1.000000e+000
    outer loop
      vertex  8.299808e-003 -2.934899e-002  0.000000e+000
      vertex -5.256181e-003 -3.004368e-002  0.000000e+000
      vertex -1.180975e-002 -2.812081e-002  0.000000e+000
    endloop
  endfacet
  facet normal -5.666307e-001  8.069384e-001  1.666735e-001
    outer loop
      vertex  2.997757e-002 -3.748794e-002  1.100000e-001
      vertex  1.966069e-002 -2.221843e-002  1.000000e-003
      vertex  1.422368e-002 -2.603628e-002  1.000000e-003
    endloop
  endfacet
  facet normal -5.464710e-001  8.210151e-001  1.652387e-001
    outer loop
      vertex  2.301243e-002 -4.212397e-002  1.100000e-001
      vertex  2.997757e-002 -3.748794e-002  1.100000e-001
      vertex  1.422368e-002 -2.603628e-002  1.000000e-003
    endloop
  endfacet
  facet normal  3.956011e-001 -9.034356e-001  1.652387e-001
    outer loop
      vertex -1.534807e-002  4.548007e-002  1.100000e-001
      vertex -2.301243e-002  4.212397e-002  1.100000e-001
      vertex -1.422368e-002  2.603628e-002  1.000000e-003
    endloop
  endfacet
  facet normal  3.728634e-001 -9.127941e-001  1.666736e-001
    outer loop
      vertex -8.073449e-003  2.854856e-002  1.000000e-003
      vertex -1.534807e-002  4.548007e-002  1.100000e-001
      vertex -1.422368e-002  2.603628e-002  1.000000e-003
    endloop
  endfacet
  facet normal -6.808301e-001  7.137465e-001  1.644275e-001
    outer loop
      vertex  2.997757e-002 -3.748794e-002  1.100000e-001
      vertex  3.603185e-002 -3.171286e-002  1.100000e-001
      vertex  1.966069e-002 -2.221843e-002  1.000000e-003
    endloop
  endfacet
  facet normal -7.944493e-001  5.846942e-001  1.642652e-001
    outer loop
      vertex  3.603185e-002 -3.171286e-002  1.100000e-001
      vertex  4.099133e-002 -2.497421e-002  1.100000e-001
      vertex  2.411181e-002 -1.728645e-002  1.000000e-003
    endloop
  endfacet
  facet normal -7.318859e-001  6.605301e-001  1.674604e-001
    outer loop
      vertex  1.966069e-002 -2.221843e-002  1.000000e-003
      vertex  3.603185e-002 -3.171286e-002  1.100000e-001
      vertex  2.411181e-002 -1.728645e-002  1.000000e-003
    endloop
  endfacet
  facet normal -8.838380e-001  4.378208e-001  1.647522e-001
    outer loop
      vertex  4.099133e-002 -2.497421e-002  1.100000e-001
      vertex  4.470531e-002 -1.747673e-002  1.100000e-001
      vertex  2.735388e-002 -1.148766e-002  1.000000e-003
    endloop
  endfacet
  facet normal -8.605565e-001  4.811311e-001  1.671981e-001
    outer loop
      vertex  2.411181e-002 -1.728645e-002  1.000000e-003
      vertex  4.099133e-002 -2.497421e-002  1.100000e-001
      vertex  2.735388e-002 -1.148766e-002  1.000000e-003
    endloop
  endfacet
  facet normal -9.802796e-001  1.091264e-001  1.647522e-001
    outer loop
      vertex  4.706093e-002 -9.448221e-003  1.100000e-001
      vertex  4.798663e-002 -1.132636e-003  1.100000e-001
      vertex  2.922431e-002 -5.112831e-003  1.000000e-003
    endloop
  endfacet
  facet normal -9.462548e-001  2.776387e-001  1.658868e-001
    outer loop
      vertex  2.735388e-002 -1.148766e-002  1.000000e-003
      vertex  4.706093e-002 -9.448221e-003  1.100000e-001
      vertex  2.922431e-002 -5.112831e-003  1.000000e-003
    endloop
  endfacet
  facet normal -9.462549e-001  2.776385e-001  1.658868e-001
    outer loop
      vertex  4.470531e-002 -1.747673e-002  1.100000e-001
      vertex  4.706093e-002 -9.448221e-003  1.100000e-001
      vertex  2.735388e-002 -1.148766e-002  1.000000e-003
    endloop
  endfacet
  facet normal -9.844176e-001 -6.276044e-002  1.642651e-001
    outer loop
      vertex  4.798663e-002 -1.132636e-003  1.100000e-001
      vertex  4.745429e-002  7.217363e-003  1.100000e-001
      vertex  2.962931e-002  1.518378e-003  1.000000e-003
    endloop
  endfacet
  facet normal -9.840896e-001  6.010293e-002  1.671981e-001
    outer loop
      vertex  2.922431e-002 -5.112831e-003  1.000000e-003
      vertex  4.798663e-002 -1.132636e-003  1.100000e-001
      vertex  2.962931e-002  1.518378e-003  1.000000e-003
    endloop
  endfacet
  facet normal -9.585376e-001 -2.327426e-001  1.644275e-001
    outer loop
      vertex  4.745429e-002  7.217363e-003  1.100000e-001
      vertex  4.548007e-002  1.534807e-002  1.100000e-001
      vertex  2.854856e-002  8.073449e-003  1.000000e-003
    endloop
  endfacet
  facet normal -9.727467e-001 -1.603775e-001  1.674604e-001
    outer loop
      vertex  2.962931e-002  1.518378e-003  1.000000e-003
      vertex  4.745429e-002  7.217363e-003  1.100000e-001
      vertex  2.854856e-002  8.073449e-003  1.000000e-003
    endloop
  endfacet
  facet normal -9.034356e-001 -3.956011e-001  1.652387e-001
    outer loop
      vertex  4.548007e-002  1.534807e-002  1.100000e-001
      vertex  4.212397e-002  2.301243e-002  1.100000e-001
      vertex  2.603628e-002  1.422368e-002  1.000000e-003
    endloop
  endfacet
  facet normal -9.127941e-001 -3.728634e-001  1.666736e-001
    outer loop
      vertex  2.854856e-002  8.073449e-003  1.000000e-003
      vertex  4.548007e-002  1.534807e-002  1.100000e-001
      vertex  2.603628e-002  1.422368e-002  1.000000e-003
    endloop
  endfacet
  facet normal -7.137465e-001 -6.808301e-001  1.644275e-001
    outer loop
      vertex  3.748794e-002  2.997757e-002  1.100000e-001
      vertex  3.171286e-002  3.603185e-002  1.100000e-001
      vertex  2.221843e-002  1.966069e-002  1.000000e-003
    endloop
  endfacet
  facet normal -8.069384e-001 -5.666307e-001  1.666735e-001
    outer loop
      vertex  2.603628e-002  1.422368e-002  1.000000e-003
      vertex  3.748794e-002  2.997757e-002  1.100000e-001
      vertex  2.221843e-002  1.966069e-002  1.000000e-003
    endloop
  endfacet
  facet normal -5.846942e-001 -7.944493e-001  1.642652e-001
    outer loop
      vertex  3.171286e-002  3.603185e-002  1.100000e-001
      vertex  2.497421e-002  4.099133e-002  1.100000e-001
      vertex  1.728645e-002  2.411181e-002  1.000000e-003
    endloop
  endfacet
  facet normal -6.605301e-001 -7.318859e-001  1.674604e-001
    outer loop
      vertex  2.221843e-002  1.966069e-002  1.000000e-003
      vertex  3.171286e-002  3.603185e-002  1.100000e-001
      vertex  1.728645e-002  2.411181e-002  1.000000e-003
    endloop
  endfacet
  facet normal -4.378208e-001 -8.838380e-001  1.647522e-001
    outer loop
      vertex  2.497421e-002  4.099133e-002  1.100000e-001
      vertex  1.747673e-002  4.470531e-002  1.100000e-001
      vertex  1.148766e-002  2.735388e-002  1.000000e-003
    endloop
  endfacet
  facet normal -4.811311e-001 -8.605565e-001  1.671981e-001
    outer loop
      vertex  1.728645e-002  2.411181e-002  1.000000e-003
      vertex  2.497421e-002  4.099133e-002  1.100000e-001
      vertex  1.148766e-002  2.735388e-002  1.000000e-003
    endloop
  endfacet
  facet normal -1.091264e-001 -9.802796e-001  1.647522e-001
    outer loop
      vertex  9.448221e-003  4.706093e-002  1.100000e-001
      vertex  1.132636e-003  4.798663e-002  1.100000e-001
      vertex  5.112831e-003  2.922431e-002  1.000000e-003
    endloop
  endfacet
  facet normal -2.776387e-001 -9.462548e-001  1.658868e-001
    outer loop
      vertex  1.148766e-002  2.735388e-002  1.000000e-003
      vertex  9.448221e-003  4.706093e-002  1.100000e-001
      vertex  5.112831e-003  2.922431e-002  1.000000e-003
    endloop
  endfacet
  facet normal -2.776385e-001 -9.462549e-001  1.658868e-001
    outer loop
      vertex  1.747673e-002  4.470531e-002  1.100000e-001
      vertex  9.448221e-003  4.706093e-002  1.100000e-001
      vertex  1.148766e-002  2.735388e-002  1.000000e-003
    endloop
  endfacet
  facet normal  6.276044e-002 -9.844176e-001  1.642651e-001
    outer loop
      vertex  1.132636e-003  4.798663e-002  1.100000e-001
      vertex -7.217363e-003  4.745429e-002  1.100000e-001
      vertex -1.518378e-003  2.962931e-002  1.000000e-003
    endloop
  endfacet
  facet normal -6.010293e-002 -9.840896e-001  1.671981e-001
    outer loop
      vertex  5.112831e-003  2.922431e-002  1.000000e-003
      vertex  1.132636e-003  4.798663e-002  1.100000e-001
      vertex -1.518378e-003  2.962931e-002  1.000000e-003
    endloop
  endfacet
  facet normal  2.327426e-001 -9.585376e-001  1.644275e-001
    outer loop
      vertex -7.217363e-003  4.745429e-002  1.100000e-001
      vertex -1.534807e-002  4.548007e-002  1.100000e-001
      vertex -8.073449e-003  2.854856e-002  1.000000e-003
    endloop
  endfacet
  facet normal  1.603775e-001 -9.727467e-001  1.674604e-001
    outer loop
      vertex -1.518378e-003  2.962931e-002  1.000000e-003
      vertex -7.217363e-003  4.745429e-002  1.100000e-001
      vertex -8.073449e-003  2.854856e-002  1.000000e-003
    endloop
  endfacet
  facet normal -8.210151e-001 -5.464710e-001  1.652387e-001
    outer loop
      vertex  4.212397e-002  2.301243e-002  1.100000e-001
      vertex  3.748794e-002  2.997757e-002  1.100000e-001
      vertex  2.603628e-002  1.422368e-002  1.000000e-003
    endloop
  endfacet
  facet normal  5.666286e-001 -8.069354e-001 -1.666948e-001
    outer loop
      vertex  1.462248e-002 -2.676627e-002  7.007021e-018
      vertex  2.021192e-002 -2.284138e-002  0.000000e+000
      vertex  3.060210e-002 -3.826894e-002  1.100000e-001
    endloop
  endfacet
  facet normal  5.464707e-001 -8.210152e-001 -1.652387e-001
    outer loop
      vertex  1.462248e-002 -2.676627e-002  7.007021e-018
      vertex  3.060210e-002 -3.826894e-002  1.100000e-001
      vertex  2.349185e-002 -4.300155e-002  1.100000e-001
    endloop
  endfacet
  facet normal -3.956011e-001  9.034356e-001 -1.652388e-001
    outer loop
      vertex -1.462248e-002  2.676627e-002  7.007021e-018
      vertex -2.349185e-002  4.300155e-002  1.100000e-001
      vertex -1.566782e-002  4.642758e-002  1.100000e-001
    endloop
  endfacet
  facet normal -3.728621e-001  9.127905e-001 -1.666947e-001
    outer loop
      vertex -1.462248e-002  2.676627e-002  7.007021e-018
      vertex -1.566782e-002  4.642758e-002  1.100000e-001
      vertex -8.299808e-003  2.934899e-002  0.000000e+000
    endloop
  endfacet
  facet normal  6.808318e-001 -7.137483e-001 -1.644124e-001
    outer loop
      vertex  2.021192e-002 -2.284138e-002  0.000000e+000
      vertex  3.678251e-002 -3.237355e-002  1.100000e-001
      vertex  3.060210e-002 -3.826894e-002  1.100000e-001
    endloop
  endfacet
  facet normal  7.944517e-001 -5.846961e-001 -1.642470e-001
    outer loop
      vertex  2.478785e-002 -1.777112e-002  0.000000e+000
      vertex  4.184531e-002 -2.549451e-002  1.100000e-001
      vertex  3.678251e-002 -3.237355e-002  1.100000e-001
    endloop
  endfacet
  facet normal  7.318819e-001 -6.605269e-001 -1.674907e-001
    outer loop
      vertex  2.478785e-002 -1.777112e-002  0.000000e+000
      vertex  3.678251e-002 -3.237355e-002  1.100000e-001
      vertex  2.021192e-002 -2.284138e-002  0.000000e+000
    endloop
  endfacet
  facet normal  8.838396e-001 -4.378211e-001 -1.647431e-001
    outer loop
      vertex  2.812081e-002 -1.180975e-002  0.000000e+000
      vertex  4.563667e-002 -1.784083e-002  1.100000e-001
      vertex  4.184531e-002 -2.549451e-002  1.100000e-001
    endloop
  endfacet
  facet normal  8.605525e-001 -4.811289e-001 -1.672254e-001
    outer loop
      vertex  2.812081e-002 -1.180975e-002  0.000000e+000
      vertex  4.184531e-002 -2.549451e-002  1.100000e-001
      vertex  2.478785e-002 -1.777112e-002  0.000000e+000
    endloop
  endfacet
  facet normal  9.802812e-001 -1.091263e-001 -1.647431e-001
    outer loop
      vertex  3.004368e-002 -5.256181e-003  0.000000e+000
      vertex  4.898636e-002 -1.156233e-003  1.100000e-001
      vertex  4.804137e-002 -9.645059e-003  1.100000e-001
    endloop
  endfacet
  facet normal  9.462529e-001 -2.776383e-001 -1.658990e-001
    outer loop
      vertex  3.004368e-002 -5.256181e-003  0.000000e+000
      vertex  4.804137e-002 -9.645059e-003  1.100000e-001
      vertex  2.812081e-002 -1.180975e-002  0.000000e+000
    endloop
  endfacet
  facet normal  9.462529e-001 -2.776384e-001 -1.658989e-001
    outer loop
      vertex  2.812081e-002 -1.180975e-002  0.000000e+000
      vertex  4.804137e-002 -9.645059e-003  1.100000e-001
      vertex  4.563667e-002 -1.784083e-002  1.100000e-001
    endloop
  endfacet
  facet normal  9.844207e-001  6.276049e-002 -1.642470e-001
    outer loop
      vertex  3.046003e-002  1.560950e-003  0.000000e+000
      vertex  4.844292e-002  7.367725e-003  1.100000e-001
      vertex  4.898636e-002 -1.156233e-003  1.100000e-001
    endloop
  endfacet
  facet normal  9.840851e-001 -6.010229e-002 -1.672254e-001
    outer loop
      vertex  3.046003e-002  1.560950e-003  0.000000e+000
      vertex  4.898636e-002 -1.156233e-003  1.100000e-001
      vertex  3.004368e-002 -5.256181e-003  0.000000e+000
    endloop
  endfacet
  facet normal  9.585401e-001  2.327432e-001 -1.644124e-001
    outer loop
      vertex  2.934899e-002  8.299808e-003  0.000000e+000
      vertex  4.642758e-002  1.566782e-002  1.100000e-001
      vertex  4.844292e-002  7.367725e-003  1.100000e-001
    endloop
  endfacet
  facet normal  9.727416e-001  1.603766e-001 -1.674907e-001
    outer loop
      vertex  2.934899e-002  8.299808e-003  0.000000e+000
      vertex  4.844292e-002  7.367725e-003  1.100000e-001
      vertex  3.046003e-002  1.560950e-003  0.000000e+000
    endloop
  endfacet
  facet normal  9.034356e-001  3.956011e-001 -1.652388e-001
    outer loop
      vertex  2.676627e-002  1.462248e-002  0.000000e+000
      vertex  4.300155e-002  2.349185e-002  1.100000e-001
      vertex  4.642758e-002  1.566782e-002  1.100000e-001
    endloop
  endfacet
  facet normal  9.127905e-001  3.728621e-001 -1.666947e-001
    outer loop
      vertex  2.676627e-002  1.462248e-002  0.000000e+000
      vertex  4.642758e-002  1.566782e-002  1.100000e-001
      vertex  2.934899e-002  8.299808e-003  0.000000e+000
    endloop
  endfacet
  facet normal  7.137483e-001  6.808318e-001 -1.644124e-001
    outer loop
      vertex  2.284138e-002  2.021192e-002  0.000000e+000
      vertex  3.237355e-002  3.678251e-002  1.100000e-001
      vertex  3.826894e-002  3.060210e-002  1.100000e-001
    endloop
  endfacet
  facet normal  8.069354e-001  5.666286e-001 -1.666948e-001
    outer loop
      vertex  2.284138e-002  2.021192e-002  0.000000e+000
      vertex  3.826894e-002  3.060210e-002  1.100000e-001
      vertex  2.676627e-002  1.462248e-002  0.000000e+000
    endloop
  endfacet
  facet normal  5.846961e-001  7.944517e-001 -1.642470e-001
    outer loop
      vertex  1.777112e-002  2.478785e-002  0.000000e+000
      vertex  2.549451e-002  4.184531e-002  1.100000e-001
      vertex  3.237355e-002  3.678251e-002  1.100000e-001
    endloop
  endfacet
  facet normal  6.605269e-001  7.318819e-001 -1.674907e-001
    outer loop
      vertex  1.777112e-002  2.478785e-002  0.000000e+000
      vertex  3.237355e-002  3.678251e-002  1.100000e-001
      vertex  2.284138e-002  2.021192e-002  0.000000e+000
    endloop
  endfacet
  facet normal  4.378211e-001  8.838396e-001 -1.647431e-001
    outer loop
      vertex  1.180975e-002  2.812081e-002  0.000000e+000
      vertex  1.784083e-002  4.563667e-002  1.100000e-001
      vertex  2.549451e-002  4.184531e-002  1.100000e-001
    endloop
  endfacet
  facet normal  4.811289e-001  8.605525e-001 -1.672254e-001
    outer loop
      vertex  1.180975e-002  2.812081e-002  0.000000e+000
      vertex  2.549451e-002  4.184531e-002  1.100000e-001
      vertex  1.777112e-002  2.478785e-002  0.000000e+000
    endloop
  endfacet
  facet normal  1.091263e-001  9.802812e-001 -1.647431e-001
    outer loop
      vertex  5.256181e-003  3.004368e-002  0.000000e+000
      vertex  1.156233e-003  4.898636e-002  1.100000e-001
      vertex  9.645059e-003  4.804137e-002  1.100000e-001
    endloop
  endfacet
  facet normal  2.776383e-001  9.462529e-001 -1.658990e-001
    outer loop
      vertex  5.256181e-003  3.004368e-002  0.000000e+000
      vertex  9.645059e-003  4.804137e-002  1.100000e-001
      vertex  1.180975e-002  2.812081e-002  0.000000e+000
    endloop
  endfacet
  facet normal  2.776384e-001  9.462529e-001 -1.658989e-001
    outer loop
      vertex  1.180975e-002  2.812081e-002  0.000000e+000
      vertex  9.645059e-003  4.804137e-002  1.100000e-001
      vertex  1.784083e-002  4.563667e-002  1.100000e-001
    endloop
  endfacet
  facet normal -6.276049e-002  9.844207e-001 -1.642470e-001
    outer loop
      vertex -1.560950e-003  3.046003e-002  0.000000e+000
      vertex -7.367725e-003  4.844292e-002  1.100000e-001
      vertex  1.156233e-003  4.898636e-002  1.100000e-001
    endloop
  endfacet
  facet normal  6.010229e-002  9.840851e-001 -1.672254e-001
    outer loop
      vertex -1.560950e-003  3.046003e-002  0.000000e+000
      vertex  1.156233e-003  4.898636e-002  1.100000e-001
      vertex  5.256181e-003  3.004368e-002  0.000000e+000
    endloop
  endfacet
  facet normal -2.327432e-001  9.585401e-001 -1.644124e-001
    outer loop
      vertex -8.299808e-003  2.934899e-002  0.000000e+000
      vertex -1.566782e-002  4.642758e-002  1.100000e-001
      vertex -7.367725e-003  4.844292e-002  1.100000e-001
    endloop
  endfacet
  facet normal -1.603766e-001  9.727416e-001 -1.674907e-001
    outer loop
      vertex -8.299808e-003  2.934899e-002  0.000000e+000
      vertex -7.367725e-003  4.844292e-002  1.100000e-001
      vertex -1.560950e-003  3.046003e-002  0.000000e+000
    endloop
  endfacet
  facet normal  8.210152e-001  5.464707e-001 -1.652387e-001
    outer loop
      vertex  2.676627e-002  1.462248e-002  0.000000e+000
      vertex  3.826894e-002  3.060210e-002  1.100000e-001
      vertex  4.300155e-002  2.349185e-002  1.100000e-001
    endloop
  endfacet
  facet normal  5.666307e-001 -8.069384e-001  1.666735e-001
    outer loop
      vertex -2.997757e-002  3.748794e-002  1.100000e-001
      vertex -1.966069e-002  2.221843e-002  1.000000e-003
      vertex -1.422368e-002  2.603628e-002  1.000000e-003
    endloop
  endfacet
  facet normal  5.464710e-001 -8.210151e-001  1.652387e-001
    outer loop
      vertex -2.301243e-002  4.212397e-002  1.100000e-001
      vertex -2.997757e-002  3.748794e-002  1.100000e-001
      vertex -1.422368e-002  2.603628e-002  1.000000e-003
    endloop
  endfacet
  facet normal -3.956011e-001  9.034356e-001  1.652387e-001
    outer loop
      vertex  1.534807e-002 -4.548007e-002  1.100000e-001
      vertex  2.301243e-002 -4.212397e-002  1.100000e-001
      vertex  1.422368e-002 -2.603628e-002  1.000000e-003
    endloop
  endfacet
  facet normal -3.728634e-001  9.127941e-001  1.666736e-001
    outer loop
      vertex  8.073449e-003 -2.854856e-002  1.000000e-003
      vertex  1.534807e-002 -4.548007e-002  1.100000e-001
      vertex  1.422368e-002 -2.603628e-002  1.000000e-003
    endloop
  endfacet
  facet normal  6.808301e-001 -7.137465e-001  1.644275e-001
    outer loop
      vertex -2.997757e-002  3.748794e-002  1.100000e-001
      vertex -3.603185e-002  3.171286e-002  1.100000e-001
      vertex -1.966069e-002  2.221843e-002  1.000000e-003
    endloop
  endfacet
  facet normal  7.944493e-001 -5.846942e-001  1.642652e-001
    outer loop
      vertex -3.603185e-002  3.171286e-002  1.100000e-001
      vertex -4.099133e-002  2.497421e-002  1.100000e-001
      vertex -2.411181e-002  1.728645e-002  1.000000e-003
    endloop
  endfacet
  facet normal  7.318859e-001 -6.605301e-001  1.674604e-001
    outer loop
      vertex -1.966069e-002  2.221843e-002  1.000000e-003
      vertex -3.603185e-002  3.171286e-002  1.100000e-001
      vertex -2.411181e-002  1.728645e-002  1.000000e-003
    endloop
  endfacet
  facet normal  8.838380e-001 -4.378208e-001  1.647522e-001
    outer loop
      vertex -4.099133e-002  2.497421e-002  1.100000e-001
      vertex -4.470531e-002  1.747673e-002  1.100000e-001
      vertex -2.735388e-002  1.148766e-002  1.000000e-003
    endloop
  endfacet
  facet normal  8.605565e-001 -4.811311e-001  1.671981e-001
    outer loop
      vertex -2.411181e-002  1.728645e-002  1.000000e-003
      vertex -4.099133e-002  2.497421e-002  1.100000e-001
      vertex -2.735388e-002  1.148766e-002  1.000000e-003
    endloop
  endfacet
  facet normal  9.802796e-001 -1.091264e-001  1.647522e-001
    outer loop
      vertex -4.706093e-002  9.448221e-003  1.100000e-001
      vertex -4.798663e-002  1.132636e-003  1.100000e-001
      vertex -2.922431e-002  5.112831e-003  1.000000e-003
    endloop
  endfacet
  facet normal  9.462548e-001 -2.776387e-001  1.658868e-001
    outer loop
      vertex -2.735388e-002  1.148766e-002  1.000000e-003
      vertex -4.706093e-002  9.448221e-003  1.100000e-001
      vertex -2.922431e-002  5.112831e-003  1.000000e-003
    endloop
  endfacet
  facet normal  9.462549e-001 -2.776385e-001  1.658868e-001
    outer loop
      vertex -4.470531e-002  1.747673e-002  1.100000e-001
      vertex -4.706093e-002  9.448221e-003  1.100000e-001
      vertex -2.735388e-002  1.148766e-002  1.000000e-003
    endloop
  endfacet
  facet normal  9.844176e-001  6.276044e-002  1.642651e-001
    outer loop
      vertex -4.798663e-002  1.132636e-003  1.100000e-001
      vertex -4.745429e-002 -7.217363e-003  1.100000e-001
      vertex -2.962931e-002 -1.518378e-003  1.000000e-003
    endloop
  endfacet
  facet normal  9.840896e-001 -6.010293e-002  1.671981e-001
    outer loop
      vertex -2.922431e-002  5.112831e-003  1.000000e-003
      vertex -4.798663e-002  1.132636e-003  1.100000e-001
      vertex -2.962931e-002 -1.518378e-003  1.000000e-003
    endloop
  endfacet
  facet normal  9.585376e-001  2.327426e-001  1.644275e-001
    outer loop
      vertex -4.745429e-002 -7.217363e-003  1.100000e-001
      vertex -4.548007e-002 -1.534807e-002  1.100000e-001
      vertex -2.854856e-002 -8.073449e-003  1.000000e-003
    endloop
  endfacet
  facet normal  9.727467e-001  1.603775e-001  1.674604e-001
    outer loop
      vertex -2.962931e-002 -1.518378e-003  1.000000e-003
      vertex -4.745429e-002 -7.217363e-003  1.100000e-001
      vertex -2.854856e-002 -8.073449e-003  1.000000e-003
    endloop
  endfacet
  facet normal  9.034356e-001  3.956011e-001  1.652387e-001
    outer loop
      vertex -4.548007e-002 -1.534807e-002  1.100000e-001
      vertex -4.212397e-002 -2.301243e-002  1.100000e-001
      vertex -2.603628e-002 -1.422368e-002  1.000000e-003
    endloop
  endfacet
  facet normal  9.127941e-001  3.728634e-001  1.666736e-001
    outer loop
      vertex -2.854856e-002 -8.073449e-003  1.000000e-003
      vertex -4.548007e-002 -1.534807e-002  1.100000e-001
      vertex -2.603628e-002 -1.422368e-002  1.000000e-003
    endloop
  endfacet
  facet normal  7.137465e-001  6.808301e-001  1.644275e-001
    outer loop
      vertex -3.748794e-002 -2.997757e-002  1.100000e-001
      vertex -3.171286e-002 -3.603185e-002  1.100000e-001
      vertex -2.221843e-002 -1.966069e-002  1.000000e-003
    endloop
  endfacet
  facet normal  8.069384e-001  5.666307e-001  1.666735e-001
    outer loop
      vertex -2.603628e-002 -1.422368e-002  1.000000e-003
      vertex -3.748794e-002 -2.997757e-002  1.100000e-001
      vertex -2.221843e-002 -1.966069e-002  1.000000e-003
    endloop
  endfacet
  facet normal  5.846942e-001  7.944493e-001  1.642652e-001
    outer loop
      vertex -3.171286e-002 -3.603185e-002  1.100000e-001
      vertex -2.497421e-002 -4.099133e-002  1.100000e-001
      vertex -1.728645e-002 -2.411181e-002  1.000000e-003
    endloop
  endfacet
  facet normal  6.605301e-001  7.318859e-001  1.674604e-001
    outer loop
      vertex -2.221843e-002 -1.966069e-002  1.000000e-003
      vertex -3.171286e-002 -3.603185e-002  1.100000e-001
      vertex -1.728645e-002 -2.411181e-002  1.000000e-003
    endloop
  endfacet
  facet normal  4.378208e-001  8.838380e-001  1.647522e-001
    outer loop
      vertex -2.497421e-002 -4.099133e-002  1.100000e-001
      vertex -1.747673e-002 -4.470531e-002  1.100000e-001
      vertex -1.148766e-002 -2.735388e-002  1.000000e-003
    endloop
  endfacet
  facet normal  4.811311e-001  8.605565e-001  1.671981e-001
    outer loop
      vertex -1.728645e-002 -2.411181e-002  1.000000e-003
      vertex -2.497421e-002 -4.099133e-002  1.100000e-001
      vertex -1.148766e-002 -2.735388e-002  1.000000e-003
    endloop
  endfacet
  facet normal  1.091264e-001  9.802796e-001  1.647522e-001
    outer loop
      vertex -9.448221e-003 -4.706093e-002  1.100000e-001
      vertex -1.132636e-003 -4.798663e-002  1.100000e-001
      vertex -5.112831e-003 -2.922431e-002  1.000000e-003
    endloop
  endfacet
  facet normal  2.776387e-001  9.462548e-001  1.658868e-001
    outer loop
      vertex -1.148766e-002 -2.735388e-002  1.000000e-003
      vertex -9.448221e-003 -4.706093e-002  1.100000e-001
      vertex -5.112831e-003 -2.922431e-002  1.000000e-003
    endloop
  endfacet
  facet normal  2.776385e-001  9.462549e-001  1.658868e-001
    outer loop
      vertex -1.747673e-002 -4.470531e-002  1.100000e-001
      vertex -9.448221e-003 -4.706093e-002  1.100000e-001
      vertex -1.148766e-002 -2.735388e-002  1.000000e-003
    endloop
  endfacet
  facet normal -6.276044e-002  9.844176e-001  1.642651e-001
    outer loop
      vertex -1.132636e-003 -4.798663e-002  1.100000e-001
      vertex  7.217363e-003 -4.745429e-002  1.100000e-001
      vertex  1.518378e-003 -2.962931e-002  1.000000e-003
    endloop
  endfacet
  facet normal  6.010293e-002  9.840896e-001  1.671981e-001
    outer loop
      vertex -5.112831e-003 -2.922431e-002  1.000000e-003
      vertex -1.132636e-003 -4.798663e-002  1.100000e-001
      vertex  1.518378e-003 -2.962931e-002  1.000000e-003
    endloop
  endfacet
  facet normal -2.327426e-001  9.585376e-001  1.644275e-001
    outer loop
      vertex  7.217363e-003 -4.745429e-002  1.100000e-001
      vertex  1.534807e-002 -4.548007e-002  1.100000e-001
      vertex  8.073449e-003 -2.854856e-002  1.000000e-003
    endloop
  endfacet
  facet normal -1.603775e-001  9.727467e-001  1.674604e-001
    outer loop
      vertex  1.518378e-003 -2.962931e-002  1.000000e-003
      vertex  7.217363e-003 -4.745429e-002  1.100000e-001
      vertex  8.073449e-003 -2.854856e-002  1.000000e-003
    endloop
  endfacet
  facet normal  8.210151e-001  5.464710e-001  1.652387e-001
    outer loop
      vertex -4.212397e-002 -2.301243e-002  1.100000e-001
      vertex -3.748794e-002 -2.997757e-002  1.100000e-001
      vertex -2.603628e-002 -1.422368e-002  1.000000e-003
    endloop
  endfacet
  facet normal -5.666286e-001  8.069354e-001 -1.666948e-001
    outer loop
      vertex -1.462248e-002  2.676627e-002  7.007021e-018
      vertex -2.021192e-002  2.284138e-002  0.000000e+000
      vertex -3.060210e-002  3.826894e-002  1.100000e-001
    endloop
  endfacet
  facet normal -5.464707e-001  8.210152e-001 -1.652387e-001
    outer loop
      vertex -1.462248e-002  2.676627e-002  7.007021e-018
      vertex -3.060210e-002  3.826894e-002  1.100000e-001
      vertex -2.349185e-002  4.300155e-002  1.100000e-001
    endloop
  endfacet
  facet normal  3.956011e-001 -9.034356e-001 -1.652388e-001
    outer loop
      vertex  1.462248e-002 -2.676627e-002  7.007021e-018
      vertex  2.349185e-002 -4.300155e-002  1.100000e-001
      vertex  1.566782e-002 -4.642758e-002  1.100000e-001
    endloop
  endfacet
  facet normal  3.728621e-001 -9.127905e-001 -1.666947e-001
    outer loop
      vertex  1.462248e-002 -2.676627e-002  7.007021e-018
      vertex  1.566782e-002 -4.642758e-002  1.100000e-001
      vertex  8.299808e-003 -2.934899e-002  0.000000e+000
    endloop
  endfacet
  facet normal -6.808318e-001  7.137483e-001 -1.644124e-001
    outer loop
      vertex -2.021192e-002  2.284138e-002  0.000000e+000
      vertex -3.678251e-002  3.237355e-002  1.100000e-001
      vertex -3.060210e-002  3.826894e-002  1.100000e-001
    endloop
  endfacet
  facet normal -7.944517e-001  5.846961e-001 -1.642470e-001
    outer loop
      vertex -2.478785e-002  1.777112e-002  0.000000e+000
      vertex -4.184531e-002  2.549451e-002  1.100000e-001
      vertex -3.678251e-002  3.237355e-002  1.100000e-001
    endloop
  endfacet
  facet normal -7.318819e-001  6.605269e-001 -1.674907e-001
    outer loop
      vertex -2.478785e-002  1.777112e-002  0.000000e+000
      vertex -3.678251e-002  3.237355e-002  1.100000e-001
      vertex -2.021192e-002  2.284138e-002  0.000000e+000
    endloop
  endfacet
  facet normal -8.838396e-001  4.378211e-001 -1.647431e-001
    outer loop
      vertex -2.812081e-002  1.180975e-002  0.000000e+000
      vertex -4.563667e-002  1.784083e-002  1.100000e-001
      vertex -4.184531e-002  2.549451e-002  1.100000e-001
    endloop
  endfacet
  facet normal -8.605525e-001  4.811289e-001 -1.672254e-001
    outer loop
      vertex -2.812081e-002  1.180975e-002  0.000000e+000
      vertex -4.184531e-002  2.549451e-002  1.100000e-001
      vertex -2.478785e-002  1.777112e-002  0.000000e+000
    endloop
  endfacet
  facet normal -9.802812e-001  1.091263e-001 -1.647431e-001
    outer loop
      vertex -3.004368e-002  5.256181e-003  0.000000e+000
      vertex -4.898636e-002  1.156233e-003  1.100000e-001
      vertex -4.804137e-002  9.645059e-003  1.100000e-001
    endloop
  endfacet
  facet normal -9.462529e-001  2.776383e-001 -1.658990e-001
    outer loop
      vertex -3.004368e-002  5.256181e-003  0.000000e+000
      vertex -4.804137e-002  9.645059e-003  1.100000e-001
      vertex -2.812081e-002  1.180975e-002  0.000000e+000
    endloop
  endfacet
  facet normal -9.462529e-001  2.776384e-001 -1.658989e-001
    outer loop
      vertex -2.812081e-002  1.180975e-002  0.000000e+000
      vertex -4.804137e-002  9.645059e-003  1.100000e-001
      vertex -4.563667e-002  1.784083e-002  1.100000e-001
    endloop
  endfacet
  facet normal -9.844207e-001 -6.276049e-002 -1.642470e-001
    outer loop
      vertex -3.046003e-002 -1.560950e-003  0.000000e+000
      vertex -4.844292e-002 -7.367725e-003  1.100000e-001
      vertex -4.898636e-002  1.156233e-003  1.100000e-001
    endloop
  endfacet
  facet normal -9.840851e-001  6.010229e-002 -1.672254e-001
    outer loop
      vertex -3.046003e-002 -1.560950e-003  0.000000e+000
      vertex -4.898636e-002  1.156233e-003  1.100000e-001
      vertex -3.004368e-002  5.256181e-003  0.000000e+000
    endloop
  endfacet
  facet normal -9.585401e-001 -2.327432e-001 -1.644124e-001
    outer loop
      vertex -2.934899e-002 -8.299808e-003  0.000000e+000
      vertex -4.642758e-002 -1.566782e-002  1.100000e-001
      vertex -4.844292e-002 -7.367725e-003  1.100000e-001
    endloop
  endfacet
  facet normal -9.727416e-001 -1.603766e-001 -1.674907e-001
    outer loop
      vertex -2.934899e-002 -8.299808e-003  0.000000e+000
      vertex -4.844292e-002 -7.367725e-003  1.100000e-001
      vertex -3.046003e-002 -1.560950e-003  0.000000e+000
    endloop
  endfacet
  facet normal -9.034356e-001 -3.956011e-001 -1.652388e-001
    outer loop
      vertex -2.676627e-002 -1.462248e-002  0.000000e+000
      vertex -4.300155e-002 -2.349185e-002  1.100000e-001
      vertex -4.642758e-002 -1.566782e-002  1.100000e-001
    endloop
  endfacet
  facet normal -9.127905e-001 -3.728621e-001 -1.666947e-001
    outer loop
      vertex -2.676627e-002 -1.462248e-002  0.000000e+000
      vertex -4.642758e-002 -1.566782e-002  1.100000e-001
      vertex -2.934899e-002 -8.299808e-003  0.000000e+000
    endloop
  endfacet
  facet normal -7.137483e-001 -6.808318e-001 -1.644124e-001
    outer loop
      vertex -2.284138e-002 -2.021192e-002  0.000000e+000
      vertex -3.237355e-002 -3.678251e-002  1.100000e-001
      vertex -3.826894e-002 -3.060210e-002  1.100000e-001
    endloop
  endfacet
  facet normal -8.069354e-001 -5.666286e-001 -1.666948e-001
    outer loop
      vertex -2.284138e-002 -2.021192e-002  0.000000e+000
      vertex -3.826894e-002 -3.060210e-002  1.100000e-001
      vertex -2.676627e-002 -1.462248e-002  0.000000e+000
    endloop
  endfacet
  facet normal -5.846961e-001 -7.944517e-001 -1.642470e-001
    outer loop
      vertex -1.777112e-002 -2.478785e-002  0.000000e+000
      vertex -2.549451e-002 -4.184531e-002  1.100000e-001
      vertex -3.237355e-002 -3.678251e-002  1.100000e-001
    endloop
  endfacet
  facet normal -6.605269e-001 -7.318819e-001 -1.674907e-001
    outer loop
      vertex -1.777112e-002 -2.478785e-002  0.000000e+000
      vertex -3.237355e-002 -3.678251e-002  1.100000e-001
      vertex -2.284138e-002 -2.021192e-002  0.000000e+000
    endloop
  endfacet
  facet normal -4.378211e-001 -8.838396e-001 -1.647431e-001
    outer loop
      vertex -1.180975e-002 -2.812081e-002  0.000000e+000
      vertex -1.784083e-002 -4.563667e-002  1.100000e-001
      vertex -2.549451e-002 -4.184531e-002  1.100000e-001
    endloop
  endfacet
  facet normal -4.811289e-001 -8.605525e-001 -1.672254e-001
    outer loop
      vertex -1.180975e-002 -2.812081e-002  0.000000e+000
      vertex -2.549451e-002 -4.184531e-002  1.100000e-001
      vertex -1.777112e-002 -2.478785e-002  0.000000e+000
    endloop
  endfacet
  facet normal -1.091263e-001 -9.802812e-001 -1.647431e-001
    outer loop
      vertex -5.256181e-003 -3.004368e-002  0.000000e+000
      vertex -1.156233e-003 -4.898636e-002  1.100000e-001
      vertex -9.645059e-003 -4.804137e-002  1.100000e-001
    endloop
  endfacet
  facet normal -2.776383e-001 -9.462529e-001 -1.658990e-001
    outer loop
      vertex -5.256181e-003 -3.004368e-002  0.000000e+000
      vertex -9.645059e-003 -4.804137e-002  1.100000e-001
      vertex -1.180975e-002 -2.812081e-002  0.000000e+000
    endloop
  endfacet
  facet normal -2.776384e-001 -9.462529e-001 -1.658989e-001
    outer loop
      vertex -1.180975e-002 -2.812081e-002  0.000000e+000
      vertex -9.645059e-003 -4.804137e-002  1.100000e-001
      vertex -1.784083e-002 -4.563667e-002  1.100000e-001
    endloop
  endfacet
  facet normal  6.276049e-002 -9.844207e-001 -1.642470e-001
    outer loop
      vertex  1.560950e-003 -3.046003e-002  0.000000e+000
      vertex  7.367725e-003 -4.844292e-002  1.100000e-001
      vertex -1.156233e-003 -4.898636e-002  1.100000e-001
    endloop
  endfacet
  facet normal -6.010229e-002 -9.840851e-001 -1.672254e-001
    outer loop
      vertex  1.560950e-003 -3.046003e-002  0.000000e+000
      vertex -1.156233e-003 -4.898636e-002  1.100000e-001
      vertex -5.256181e-003 -3.004368e-002  0.000000e+000
    endloop
  endfacet
  facet normal  2.327432e-001 -9.585401e-001 -1.644124e-001
    outer loop
      vertex  8.299808e-003 -2.934899e-002  0.000000e+000
      vertex  1.566782e-002 -4.642758e-002  1.100000e-001
      vertex  7.367725e-003 -4.844292e-002  1.100000e-001
    endloop
  endfacet
  facet normal  1.603766e-001 -9.727416e-001 -1.674907e-001
    outer loop
      vertex  8.299808e-003 -2.934899e-002  0.000000e+000
      vertex  7.367725e-003 -4.844292e-002  1.100000e-001
      vertex  1.560950e-003 -3.046003e-002  0.000000e+000
    endloop
  endfacet
  facet normal -8.210152e-001 -5.464707e-001 -1.652387e-001
    outer loop
      vertex -2.676627e-002 -1.462248e-002  0.000000e+000
      vertex -3.826894e-002 -3.060210e-002  1.100000e-001
      vertex -4.300155e-002 -2.349185e-002  1.100000e-001
    endloop
  endfacet
endsolid CATIA STL
