solid CATIA STL
  facet normal  0.000000e+000  0.000000e+000  1.000000e+000
    outer loop
      vertex -7.608523e-003  3.825063e-002  2.480000e-001
      vertex  7.608523e-003  3.825063e-002  2.480000e-001
      vertex  2.387983e-018  3.900000e-002  2.480000e-001
    endloop
  endfacet
  facet normal  -0.000000e+000  0.000000e+000  1.000000e+000
    outer loop
      vertex  7.608523e-003  3.825063e-002  2.480000e-001
      vertex -7.608523e-003  3.825063e-002  2.480000e-001
      vertex  1.492465e-002  3.603131e-002  2.480000e-001
    endloop
  endfacet
  facet normal  0.000000e+000  0.000000e+000  1.000000e+000
    outer loop
      vertex  1.492465e-002  3.603131e-002  2.480000e-001
      vertex -7.608523e-003  3.825063e-002  2.480000e-001
      vertex -1.492465e-002  3.603131e-002  2.480000e-001
    endloop
  endfacet
  facet normal  -0.000000e+000  0.000000e+000  1.000000e+000
    outer loop
      vertex  1.492465e-002  3.603131e-002  2.480000e-001
      vertex -1.492465e-002  3.603131e-002  2.480000e-001
      vertex  2.166724e-002  3.242731e-002  2.480000e-001
    endloop
  endfacet
  facet normal  0.000000e+000  0.000000e+000  1.000000e+000
    outer loop
      vertex  2.166724e-002  3.242731e-002  2.480000e-001
      vertex -1.492465e-002  3.603131e-002  2.480000e-001
      vertex -2.166724e-002  3.242731e-002  2.480000e-001
    endloop
  endfacet
  facet normal  -0.000000e+000  0.000000e+000  9.999999e-001
    outer loop
      vertex  2.166724e-002  3.242731e-002  2.480000e-001
      vertex -2.166724e-002  3.242731e-002  2.480000e-001
      vertex  2.757717e-002  2.757717e-002  2.480000e-001
    endloop
  endfacet
  facet normal  0.000000e+000  0.000000e+000  1.000000e+000
    outer loop
      vertex  2.757717e-002  2.757717e-002  2.480000e-001
      vertex -2.166724e-002  3.242731e-002  2.480000e-001
      vertex -2.757717e-002  2.757717e-002  2.480000e-001
    endloop
  endfacet
  facet normal  -0.000000e+000  0.000000e+000  1.000000e+000
    outer loop
      vertex  2.757717e-002  2.757717e-002  2.480000e-001
      vertex -2.757717e-002  2.757717e-002  2.480000e-001
      vertex  3.242731e-002  2.166724e-002  2.480000e-001
    endloop
  endfacet
  facet normal  0.000000e+000  0.000000e+000  1.000000e+000
    outer loop
      vertex  3.242731e-002  2.166724e-002  2.480000e-001
      vertex -2.757717e-002  2.757717e-002  2.480000e-001
      vertex -3.242731e-002  2.166724e-002  2.480000e-001
    endloop
  endfacet
  facet normal  -0.000000e+000  0.000000e+000  1.000000e+000
    outer loop
      vertex  3.242731e-002  2.166724e-002  2.480000e-001
      vertex -3.242731e-002  2.166724e-002  2.480000e-001
      vertex  3.603131e-002  1.492465e-002  2.480000e-001
    endloop
  endfacet
  facet normal  0.000000e+000  0.000000e+000  1.000000e+000
    outer loop
      vertex  3.603131e-002  1.492465e-002  2.480000e-001
      vertex -3.242731e-002  2.166724e-002  2.480000e-001
      vertex -3.603131e-002  1.492465e-002  2.480000e-001
    endloop
  endfacet
  facet normal  -0.000000e+000  0.000000e+000  1.000000e+000
    outer loop
      vertex  3.603131e-002  1.492465e-002  2.480000e-001
      vertex -3.603131e-002  1.492465e-002  2.480000e-001
      vertex  3.825063e-002  7.608523e-003  2.480000e-001
    endloop
  endfacet
  facet normal  0.000000e+000  0.000000e+000  1.000000e+000
    outer loop
      vertex  3.825063e-002  7.608523e-003  2.480000e-001
      vertex -3.603131e-002  1.492465e-002  2.480000e-001
      vertex -3.825063e-002  7.608523e-003  2.480000e-001
    endloop
  endfacet
  facet normal  -0.000000e+000  0.000000e+000  1.000000e+000
    outer loop
      vertex  3.825063e-002  7.608523e-003  2.480000e-001
      vertex -3.825063e-002  7.608523e-003  2.480000e-001
      vertex  3.900000e-002  0.000000e+000  2.480000e-001
    endloop
  endfacet
  facet normal  0.000000e+000  0.000000e+000  1.000000e+000
    outer loop
      vertex  3.900000e-002  0.000000e+000  2.480000e-001
      vertex -3.825063e-002  7.608523e-003  2.480000e-001
      vertex -3.900000e-002  4.775965e-018  2.480000e-001
    endloop
  endfacet
  facet normal  0.000000e+000  0.000000e+000  1.000000e+000
    outer loop
      vertex  3.900000e-002  0.000000e+000  2.480000e-001
      vertex -3.900000e-002  4.775965e-018  2.480000e-001
      vertex  3.825063e-002 -7.608523e-003  2.480000e-001
    endloop
  endfacet
  facet normal  0.000000e+000  0.000000e+000  1.000000e+000
    outer loop
      vertex  3.825063e-002 -7.608523e-003  2.480000e-001
      vertex -3.900000e-002  4.775965e-018  2.480000e-001
      vertex -3.825063e-002 -7.608523e-003  2.480000e-001
    endloop
  endfacet
  facet normal  -0.000000e+000  0.000000e+000  1.000000e+000
    outer loop
      vertex  3.825063e-002 -7.608523e-003  2.480000e-001
      vertex -3.825063e-002 -7.608523e-003  2.480000e-001
      vertex  3.603131e-002 -1.492465e-002  2.480000e-001
    endloop
  endfacet
  facet normal  0.000000e+000  0.000000e+000  1.000000e+000
    outer loop
      vertex  3.603131e-002 -1.492465e-002  2.480000e-001
      vertex -3.825063e-002 -7.608523e-003  2.480000e-001
      vertex -3.603131e-002 -1.492465e-002  2.480000e-001
    endloop
  endfacet
  facet normal  -0.000000e+000  0.000000e+000  1.000000e+000
    outer loop
      vertex  3.603131e-002 -1.492465e-002  2.480000e-001
      vertex -3.603131e-002 -1.492465e-002  2.480000e-001
      vertex  3.242731e-002 -2.166724e-002  2.480000e-001
    endloop
  endfacet
  facet normal  0.000000e+000  0.000000e+000  1.000000e+000
    outer loop
      vertex  3.242731e-002 -2.166724e-002  2.480000e-001
      vertex -3.603131e-002 -1.492465e-002  2.480000e-001
      vertex -3.242731e-002 -2.166724e-002  2.480000e-001
    endloop
  endfacet
  facet normal  -0.000000e+000  0.000000e+000  1.000000e+000
    outer loop
      vertex  3.242731e-002 -2.166724e-002  2.480000e-001
      vertex -3.242731e-002 -2.166724e-002  2.480000e-001
      vertex  2.757717e-002 -2.757717e-002  2.480000e-001
    endloop
  endfacet
  facet normal  0.000000e+000  0.000000e+000  1.000000e+000
    outer loop
      vertex  2.757717e-002 -2.757717e-002  2.480000e-001
      vertex -3.242731e-002 -2.166724e-002  2.480000e-001
      vertex -2.757717e-002 -2.757717e-002  2.480000e-001
    endloop
  endfacet
  facet normal  -0.000000e+000  0.000000e+000  1.000000e+000
    outer loop
      vertex  2.757717e-002 -2.757717e-002  2.480000e-001
      vertex -2.757717e-002 -2.757717e-002  2.480000e-001
      vertex  2.166724e-002 -3.242731e-002  2.480000e-001
    endloop
  endfacet
  facet normal  0.000000e+000  0.000000e+000  9.999999e-001
    outer loop
      vertex  2.166724e-002 -3.242731e-002  2.480000e-001
      vertex -2.757717e-002 -2.757717e-002  2.480000e-001
      vertex -2.166724e-002 -3.242731e-002  2.480000e-001
    endloop
  endfacet
  facet normal  -0.000000e+000  0.000000e+000  1.000000e+000
    outer loop
      vertex  2.166724e-002 -3.242731e-002  2.480000e-001
      vertex -2.166724e-002 -3.242731e-002  2.480000e-001
      vertex  1.492465e-002 -3.603131e-002  2.480000e-001
    endloop
  endfacet
  facet normal  0.000000e+000  0.000000e+000  1.000000e+000
    outer loop
      vertex  1.492465e-002 -3.603131e-002  2.480000e-001
      vertex -2.166724e-002 -3.242731e-002  2.480000e-001
      vertex -1.492465e-002 -3.603131e-002  2.480000e-001
    endloop
  endfacet
  facet normal  -0.000000e+000  0.000000e+000  1.000000e+000
    outer loop
      vertex  1.492465e-002 -3.603131e-002  2.480000e-001
      vertex -1.492465e-002 -3.603131e-002  2.480000e-001
      vertex  7.608523e-003 -3.825063e-002  2.480000e-001
    endloop
  endfacet
  facet normal  0.000000e+000  0.000000e+000  1.000000e+000
    outer loop
      vertex  7.608523e-003 -3.825063e-002  2.480000e-001
      vertex -1.492465e-002 -3.603131e-002  2.480000e-001
      vertex -7.608523e-003 -3.825063e-002  2.480000e-001
    endloop
  endfacet
  facet normal  -0.000000e+000  0.000000e+000  1.000000e+000
    outer loop
      vertex  7.608523e-003 -3.825063e-002  2.480000e-001
      vertex -7.608523e-003 -3.825063e-002  2.480000e-001
      vertex -7.163947e-018 -3.900000e-002  2.480000e-001
    endloop
  endfacet
  facet normal  0.000000e+000  0.000000e+000 -1.000000e+000
    outer loop
      vertex  2.387983e-018  3.900000e-002  0.000000e+000
      vertex  7.608523e-003  3.825063e-002  0.000000e+000
      vertex -7.608523e-003  3.825063e-002  0.000000e+000
    endloop
  endfacet
  facet normal  -0.000000e+000  0.000000e+000 -1.000000e+000
    outer loop
      vertex -7.608523e-003  3.825063e-002  0.000000e+000
      vertex  7.608523e-003  3.825063e-002  0.000000e+000
      vertex -1.492465e-002  3.603131e-002  0.000000e+000
    endloop
  endfacet
  facet normal  0.000000e+000  0.000000e+000 -1.000000e+000
    outer loop
      vertex -1.492465e-002  3.603131e-002  0.000000e+000
      vertex  7.608523e-003  3.825063e-002  0.000000e+000
      vertex  1.492465e-002  3.603131e-002  0.000000e+000
    endloop
  endfacet
  facet normal  -0.000000e+000  0.000000e+000 -1.000000e+000
    outer loop
      vertex -1.492465e-002  3.603131e-002  0.000000e+000
      vertex  1.492465e-002  3.603131e-002  0.000000e+000
      vertex -2.166724e-002  3.242731e-002  0.000000e+000
    endloop
  endfacet
  facet normal  0.000000e+000  0.000000e+000 -1.000000e+000
    outer loop
      vertex -2.166724e-002  3.242731e-002  0.000000e+000
      vertex  1.492465e-002  3.603131e-002  0.000000e+000
      vertex  2.166724e-002  3.242731e-002  0.000000e+000
    endloop
  endfacet
  facet normal  -0.000000e+000  0.000000e+000 -9.999999e-001
    outer loop
      vertex -2.166724e-002  3.242731e-002  0.000000e+000
      vertex  2.166724e-002  3.242731e-002  0.000000e+000
      vertex -2.757717e-002  2.757717e-002  0.000000e+000
    endloop
  endfacet
  facet normal  0.000000e+000  0.000000e+000 -1.000000e+000
    outer loop
      vertex -2.757717e-002  2.757717e-002  0.000000e+000
      vertex  2.166724e-002  3.242731e-002  0.000000e+000
      vertex  2.757717e-002  2.757717e-002  0.000000e+000
    endloop
  endfacet
  facet normal  -0.000000e+000  0.000000e+000 -1.000000e+000
    outer loop
      vertex -2.757717e-002  2.757717e-002  0.000000e+000
      vertex  2.757717e-002  2.757717e-002  0.000000e+000
      vertex -3.242731e-002  2.166724e-002  0.000000e+000
    endloop
  endfacet
  facet normal  0.000000e+000  0.000000e+000 -1.000000e+000
    outer loop
      vertex -3.242731e-002  2.166724e-002  0.000000e+000
      vertex  2.757717e-002  2.757717e-002  0.000000e+000
      vertex  3.242731e-002  2.166724e-002  0.000000e+000
    endloop
  endfacet
  facet normal  -0.000000e+000  0.000000e+000 -1.000000e+000
    outer loop
      vertex -3.242731e-002  2.166724e-002  0.000000e+000
      vertex  3.242731e-002  2.166724e-002  0.000000e+000
      vertex -3.603131e-002  1.492465e-002  0.000000e+000
    endloop
  endfacet
  facet normal  0.000000e+000  0.000000e+000 -1.000000e+000
    outer loop
      vertex -3.603131e-002  1.492465e-002  0.000000e+000
      vertex  3.242731e-002  2.166724e-002  0.000000e+000
      vertex  3.603131e-002  1.492465e-002  0.000000e+000
    endloop
  endfacet
  facet normal  -0.000000e+000  0.000000e+000 -1.000000e+000
    outer loop
      vertex -3.603131e-002  1.492465e-002  0.000000e+000
      vertex  3.603131e-002  1.492465e-002  0.000000e+000
      vertex -3.825063e-002  7.608523e-003  0.000000e+000
    endloop
  endfacet
  facet normal  0.000000e+000  0.000000e+000 -1.000000e+000
    outer loop
      vertex -3.825063e-002  7.608523e-003  0.000000e+000
      vertex  3.603131e-002  1.492465e-002  0.000000e+000
      vertex  3.825063e-002  7.608523e-003  0.000000e+000
    endloop
  endfacet
  facet normal  -0.000000e+000  0.000000e+000 -1.000000e+000
    outer loop
      vertex -3.825063e-002  7.608523e-003  0.000000e+000
      vertex  3.825063e-002  7.608523e-003  0.000000e+000
      vertex -3.900000e-002  4.775965e-018  0.000000e+000
    endloop
  endfacet
  facet normal  0.000000e+000  0.000000e+000 -1.000000e+000
    outer loop
      vertex -3.900000e-002  4.775965e-018  0.000000e+000
      vertex  3.825063e-002  7.608523e-003  0.000000e+000
      vertex  3.900000e-002  0.000000e+000  0.000000e+000
    endloop
  endfacet
  facet normal  -0.000000e+000  0.000000e+000 -1.000000e+000
    outer loop
      vertex -3.900000e-002  4.775965e-018  0.000000e+000
      vertex  3.900000e-002  0.000000e+000  0.000000e+000
      vertex -3.825063e-002 -7.608523e-003  0.000000e+000
    endloop
  endfacet
  facet normal  0.000000e+000  0.000000e+000 -1.000000e+000
    outer loop
      vertex -3.825063e-002 -7.608523e-003  0.000000e+000
      vertex  3.900000e-002  0.000000e+000  0.000000e+000
      vertex  3.825063e-002 -7.608523e-003  0.000000e+000
    endloop
  endfacet
  facet normal  -0.000000e+000  0.000000e+000 -1.000000e+000
    outer loop
      vertex -3.825063e-002 -7.608523e-003  0.000000e+000
      vertex  3.825063e-002 -7.608523e-003  0.000000e+000
      vertex -3.603131e-002 -1.492465e-002  0.000000e+000
    endloop
  endfacet
  facet normal  0.000000e+000  0.000000e+000 -1.000000e+000
    outer loop
      vertex -3.603131e-002 -1.492465e-002  0.000000e+000
      vertex  3.825063e-002 -7.608523e-003  0.000000e+000
      vertex  3.603131e-002 -1.492465e-002  0.000000e+000
    endloop
  endfacet
  facet normal  -0.000000e+000  0.000000e+000 -1.000000e+000
    outer loop
      vertex -3.603131e-002 -1.492465e-002  0.000000e+000
      vertex  3.603131e-002 -1.492465e-002  0.000000e+000
      vertex -3.242731e-002 -2.166724e-002  0.000000e+000
    endloop
  endfacet
  facet normal  0.000000e+000  0.000000e+000 -1.000000e+000
    outer loop
      vertex -3.242731e-002 -2.166724e-002  0.000000e+000
      vertex  3.603131e-002 -1.492465e-002  0.000000e+000
      vertex  3.242731e-002 -2.166724e-002  0.000000e+000
    endloop
  endfacet
  facet normal  -0.000000e+000  0.000000e+000 -1.000000e+000
    outer loop
      vertex -3.242731e-002 -2.166724e-002  0.000000e+000
      vertex  3.242731e-002 -2.166724e-002  0.000000e+000
      vertex -2.757717e-002 -2.757717e-002  0.000000e+000
    endloop
  endfacet
  facet normal  0.000000e+000  0.000000e+000 -1.000000e+000
    outer loop
      vertex -2.757717e-002 -2.757717e-002  0.000000e+000
      vertex  3.242731e-002 -2.166724e-002  0.000000e+000
      vertex  2.757717e-002 -2.757717e-002  0.000000e+000
    endloop
  endfacet
  facet normal  -0.000000e+000  0.000000e+000 -1.000000e+000
    outer loop
      vertex -2.757717e-002 -2.757717e-002  0.000000e+000
      vertex  2.757717e-002 -2.757717e-002  0.000000e+000
      vertex -2.166724e-002 -3.242731e-002  0.000000e+000
    endloop
  endfacet
  facet normal  0.000000e+000  0.000000e+000 -9.999999e-001
    outer loop
      vertex -2.166724e-002 -3.242731e-002  0.000000e+000
      vertex  2.757717e-002 -2.757717e-002  0.000000e+000
      vertex  2.166724e-002 -3.242731e-002  0.000000e+000
    endloop
  endfacet
  facet normal  -0.000000e+000  0.000000e+000 -1.000000e+000
    outer loop
      vertex -2.166724e-002 -3.242731e-002  0.000000e+000
      vertex  2.166724e-002 -3.242731e-002  0.000000e+000
      vertex -1.492465e-002 -3.603131e-002  0.000000e+000
    endloop
  endfacet
  facet normal  0.000000e+000  0.000000e+000 -1.000000e+000
    outer loop
      vertex -1.492465e-002 -3.603131e-002  0.000000e+000
      vertex  2.166724e-002 -3.242731e-002  0.000000e+000
      vertex  1.492465e-002 -3.603131e-002  0.000000e+000
    endloop
  endfacet
  facet normal  -0.000000e+000  0.000000e+000 -1.000000e+000
    outer loop
      vertex -1.492465e-002 -3.603131e-002  0.000000e+000
      vertex  1.492465e-002 -3.603131e-002  0.000000e+000
      vertex -7.608523e-003 -3.825063e-002  0.000000e+000
    endloop
  endfacet
  facet normal  0.000000e+000  0.000000e+000 -1.000000e+000
    outer loop
      vertex -7.608523e-003 -3.825063e-002  0.000000e+000
      vertex  1.492465e-002 -3.603131e-002  0.000000e+000
      vertex  7.608523e-003 -3.825063e-002  0.000000e+000
    endloop
  endfacet
  facet normal  -0.000000e+000  0.000000e+000 -1.000000e+000
    outer loop
      vertex -7.608523e-003 -3.825063e-002  0.000000e+000
      vertex  7.608523e-003 -3.825063e-002  0.000000e+000
      vertex -7.163947e-018 -3.900000e-002  0.000000e+000
    endloop
  endfacet
  facet normal  9.951847e-001 -9.801718e-002  0.000000e+000
    outer loop
      vertex  3.900000e-002  0.000000e+000  0.000000e+000
      vertex  3.900000e-002  0.000000e+000  2.480000e-001
      vertex  3.825063e-002 -7.608523e-003  0.000000e+000
    endloop
  endfacet
  facet normal  9.951847e-001 -9.801718e-002  0.000000e+000
    outer loop
      vertex  3.825063e-002 -7.608523e-003  0.000000e+000
      vertex  3.900000e-002  0.000000e+000  2.480000e-001
      vertex  3.825063e-002 -7.608523e-003  2.480000e-001
    endloop
  endfacet
  facet normal  9.569405e-001 -2.902845e-001  0.000000e+000
    outer loop
      vertex  3.825063e-002 -7.608523e-003  0.000000e+000
      vertex  3.825063e-002 -7.608523e-003  2.480000e-001
      vertex  3.603131e-002 -1.492465e-002  0.000000e+000
    endloop
  endfacet
  facet normal  9.569405e-001 -2.902845e-001  0.000000e+000
    outer loop
      vertex  3.603131e-002 -1.492465e-002  0.000000e+000
      vertex  3.825063e-002 -7.608523e-003  2.480000e-001
      vertex  3.603131e-002 -1.492465e-002  2.480000e-001
    endloop
  endfacet
  facet normal  8.819211e-001 -4.713970e-001  0.000000e+000
    outer loop
      vertex  3.603131e-002 -1.492465e-002  0.000000e+000
      vertex  3.603131e-002 -1.492465e-002  2.480000e-001
      vertex  3.242731e-002 -2.166724e-002  0.000000e+000
    endloop
  endfacet
  facet normal  8.819211e-001 -4.713970e-001  0.000000e+000
    outer loop
      vertex  3.242731e-002 -2.166724e-002  0.000000e+000
      vertex  3.603131e-002 -1.492465e-002  2.480000e-001
      vertex  3.242731e-002 -2.166724e-002  2.480000e-001
    endloop
  endfacet
  facet normal  7.730104e-001 -6.343933e-001  0.000000e+000
    outer loop
      vertex  3.242731e-002 -2.166724e-002  0.000000e+000
      vertex  3.242731e-002 -2.166724e-002  2.480000e-001
      vertex  2.757717e-002 -2.757717e-002  0.000000e+000
    endloop
  endfacet
  facet normal  7.730104e-001 -6.343933e-001  0.000000e+000
    outer loop
      vertex  2.757717e-002 -2.757717e-002  0.000000e+000
      vertex  3.242731e-002 -2.166724e-002  2.480000e-001
      vertex  2.757717e-002 -2.757717e-002  2.480000e-001
    endloop
  endfacet
  facet normal  6.343933e-001 -7.730104e-001  0.000000e+000
    outer loop
      vertex  2.757717e-002 -2.757717e-002  0.000000e+000
      vertex  2.757717e-002 -2.757717e-002  2.480000e-001
      vertex  2.166724e-002 -3.242731e-002  0.000000e+000
    endloop
  endfacet
  facet normal  6.343933e-001 -7.730104e-001  0.000000e+000
    outer loop
      vertex  2.166724e-002 -3.242731e-002  0.000000e+000
      vertex  2.757717e-002 -2.757717e-002  2.480000e-001
      vertex  2.166724e-002 -3.242731e-002  2.480000e-001
    endloop
  endfacet
  facet normal  4.713970e-001 -8.819211e-001  0.000000e+000
    outer loop
      vertex  2.166724e-002 -3.242731e-002  0.000000e+000
      vertex  2.166724e-002 -3.242731e-002  2.480000e-001
      vertex  1.492465e-002 -3.603131e-002  0.000000e+000
    endloop
  endfacet
  facet normal  4.713970e-001 -8.819211e-001  0.000000e+000
    outer loop
      vertex  1.492465e-002 -3.603131e-002  0.000000e+000
      vertex  2.166724e-002 -3.242731e-002  2.480000e-001
      vertex  1.492465e-002 -3.603131e-002  2.480000e-001
    endloop
  endfacet
  facet normal  2.902845e-001 -9.569405e-001  0.000000e+000
    outer loop
      vertex  1.492465e-002 -3.603131e-002  0.000000e+000
      vertex  1.492465e-002 -3.603131e-002  2.480000e-001
      vertex  7.608523e-003 -3.825063e-002  0.000000e+000
    endloop
  endfacet
  facet normal  2.902845e-001 -9.569405e-001  0.000000e+000
    outer loop
      vertex  7.608523e-003 -3.825063e-002  0.000000e+000
      vertex  1.492465e-002 -3.603131e-002  2.480000e-001
      vertex  7.608523e-003 -3.825063e-002  2.480000e-001
    endloop
  endfacet
  facet normal  9.801718e-002 -9.951847e-001  0.000000e+000
    outer loop
      vertex  7.608523e-003 -3.825063e-002  0.000000e+000
      vertex  7.608523e-003 -3.825063e-002  2.480000e-001
      vertex -7.163947e-018 -3.900000e-002  0.000000e+000
    endloop
  endfacet
  facet normal  9.801718e-002 -9.951847e-001  0.000000e+000
    outer loop
      vertex -7.163947e-018 -3.900000e-002  0.000000e+000
      vertex  7.608523e-003 -3.825063e-002  2.480000e-001
      vertex -7.163947e-018 -3.900000e-002  2.480000e-001
    endloop
  endfacet
  facet normal -9.801718e-002 -9.951847e-001  -0.000000e+000
    outer loop
      vertex -7.163947e-018 -3.900000e-002  0.000000e+000
      vertex -7.163947e-018 -3.900000e-002  2.480000e-001
      vertex -7.608523e-003 -3.825063e-002  0.000000e+000
    endloop
  endfacet
  facet normal -9.801718e-002 -9.951847e-001  0.000000e+000
    outer loop
      vertex -7.608523e-003 -3.825063e-002  0.000000e+000
      vertex -7.163947e-018 -3.900000e-002  2.480000e-001
      vertex -7.608523e-003 -3.825063e-002  2.480000e-001
    endloop
  endfacet
  facet normal -2.902845e-001 -9.569405e-001  -0.000000e+000
    outer loop
      vertex -7.608523e-003 -3.825063e-002  0.000000e+000
      vertex -7.608523e-003 -3.825063e-002  2.480000e-001
      vertex -1.492465e-002 -3.603131e-002  0.000000e+000
    endloop
  endfacet
  facet normal -2.902845e-001 -9.569405e-001  0.000000e+000
    outer loop
      vertex -1.492465e-002 -3.603131e-002  0.000000e+000
      vertex -7.608523e-003 -3.825063e-002  2.480000e-001
      vertex -1.492465e-002 -3.603131e-002  2.480000e-001
    endloop
  endfacet
  facet normal -4.713970e-001 -8.819211e-001  -0.000000e+000
    outer loop
      vertex -1.492465e-002 -3.603131e-002  0.000000e+000
      vertex -1.492465e-002 -3.603131e-002  2.480000e-001
      vertex -2.166724e-002 -3.242731e-002  0.000000e+000
    endloop
  endfacet
  facet normal -4.713970e-001 -8.819211e-001  0.000000e+000
    outer loop
      vertex -2.166724e-002 -3.242731e-002  0.000000e+000
      vertex -1.492465e-002 -3.603131e-002  2.480000e-001
      vertex -2.166724e-002 -3.242731e-002  2.480000e-001
    endloop
  endfacet
  facet normal -6.343933e-001 -7.730104e-001  -0.000000e+000
    outer loop
      vertex -2.166724e-002 -3.242731e-002  0.000000e+000
      vertex -2.166724e-002 -3.242731e-002  2.480000e-001
      vertex -2.757717e-002 -2.757717e-002  0.000000e+000
    endloop
  endfacet
  facet normal -6.343933e-001 -7.730104e-001  0.000000e+000
    outer loop
      vertex -2.757717e-002 -2.757717e-002  0.000000e+000
      vertex -2.166724e-002 -3.242731e-002  2.480000e-001
      vertex -2.757717e-002 -2.757717e-002  2.480000e-001
    endloop
  endfacet
  facet normal -7.730104e-001 -6.343933e-001  -0.000000e+000
    outer loop
      vertex -2.757717e-002 -2.757717e-002  0.000000e+000
      vertex -2.757717e-002 -2.757717e-002  2.480000e-001
      vertex -3.242731e-002 -2.166724e-002  0.000000e+000
    endloop
  endfacet
  facet normal -7.730104e-001 -6.343933e-001  0.000000e+000
    outer loop
      vertex -3.242731e-002 -2.166724e-002  0.000000e+000
      vertex -2.757717e-002 -2.757717e-002  2.480000e-001
      vertex -3.242731e-002 -2.166724e-002  2.480000e-001
    endloop
  endfacet
  facet normal -8.819211e-001 -4.713970e-001  -0.000000e+000
    outer loop
      vertex -3.242731e-002 -2.166724e-002  0.000000e+000
      vertex -3.242731e-002 -2.166724e-002  2.480000e-001
      vertex -3.603131e-002 -1.492465e-002  0.000000e+000
    endloop
  endfacet
  facet normal -8.819211e-001 -4.713970e-001  0.000000e+000
    outer loop
      vertex -3.603131e-002 -1.492465e-002  0.000000e+000
      vertex -3.242731e-002 -2.166724e-002  2.480000e-001
      vertex -3.603131e-002 -1.492465e-002  2.480000e-001
    endloop
  endfacet
  facet normal -9.569405e-001 -2.902845e-001  -0.000000e+000
    outer loop
      vertex -3.603131e-002 -1.492465e-002  0.000000e+000
      vertex -3.603131e-002 -1.492465e-002  2.480000e-001
      vertex -3.825063e-002 -7.608523e-003  0.000000e+000
    endloop
  endfacet
  facet normal -9.569405e-001 -2.902845e-001  0.000000e+000
    outer loop
      vertex -3.825063e-002 -7.608523e-003  0.000000e+000
      vertex -3.603131e-002 -1.492465e-002  2.480000e-001
      vertex -3.825063e-002 -7.608523e-003  2.480000e-001
    endloop
  endfacet
  facet normal -9.951847e-001 -9.801718e-002  -0.000000e+000
    outer loop
      vertex -3.825063e-002 -7.608523e-003  0.000000e+000
      vertex -3.825063e-002 -7.608523e-003  2.480000e-001
      vertex -3.900000e-002  4.775965e-018  0.000000e+000
    endloop
  endfacet
  facet normal -9.951847e-001 -9.801718e-002  0.000000e+000
    outer loop
      vertex -3.900000e-002  4.775965e-018  0.000000e+000
      vertex -3.825063e-002 -7.608523e-003  2.480000e-001
      vertex -3.900000e-002  4.775965e-018  2.480000e-001
    endloop
  endfacet
  facet normal -9.951847e-001  9.801718e-002  0.000000e+000
    outer loop
      vertex -3.900000e-002  4.775965e-018  0.000000e+000
      vertex -3.900000e-002  4.775965e-018  2.480000e-001
      vertex -3.825063e-002  7.608523e-003  0.000000e+000
    endloop
  endfacet
  facet normal -9.951847e-001  9.801718e-002  0.000000e+000
    outer loop
      vertex -3.825063e-002  7.608523e-003  0.000000e+000
      vertex -3.900000e-002  4.775965e-018  2.480000e-001
      vertex -3.825063e-002  7.608523e-003  2.480000e-001
    endloop
  endfacet
  facet normal -9.569405e-001  2.902845e-001  0.000000e+000
    outer loop
      vertex -3.825063e-002  7.608523e-003  0.000000e+000
      vertex -3.825063e-002  7.608523e-003  2.480000e-001
      vertex -3.603131e-002  1.492465e-002  0.000000e+000
    endloop
  endfacet
  facet normal -9.569405e-001  2.902845e-001  0.000000e+000
    outer loop
      vertex -3.603131e-002  1.492465e-002  0.000000e+000
      vertex -3.825063e-002  7.608523e-003  2.480000e-001
      vertex -3.603131e-002  1.492465e-002  2.480000e-001
    endloop
  endfacet
  facet normal -8.819211e-001  4.713970e-001  0.000000e+000
    outer loop
      vertex -3.603131e-002  1.492465e-002  0.000000e+000
      vertex -3.603131e-002  1.492465e-002  2.480000e-001
      vertex -3.242731e-002  2.166724e-002  0.000000e+000
    endloop
  endfacet
  facet normal -8.819211e-001  4.713970e-001  0.000000e+000
    outer loop
      vertex -3.242731e-002  2.166724e-002  0.000000e+000
      vertex -3.603131e-002  1.492465e-002  2.480000e-001
      vertex -3.242731e-002  2.166724e-002  2.480000e-001
    endloop
  endfacet
  facet normal -7.730104e-001  6.343933e-001  0.000000e+000
    outer loop
      vertex -3.242731e-002  2.166724e-002  0.000000e+000
      vertex -3.242731e-002  2.166724e-002  2.480000e-001
      vertex -2.757717e-002  2.757717e-002  0.000000e+000
    endloop
  endfacet
  facet normal -7.730104e-001  6.343933e-001  0.000000e+000
    outer loop
      vertex -2.757717e-002  2.757717e-002  0.000000e+000
      vertex -3.242731e-002  2.166724e-002  2.480000e-001
      vertex -2.757717e-002  2.757717e-002  2.480000e-001
    endloop
  endfacet
  facet normal -6.343933e-001  7.730104e-001  0.000000e+000
    outer loop
      vertex -2.757717e-002  2.757717e-002  0.000000e+000
      vertex -2.757717e-002  2.757717e-002  2.480000e-001
      vertex -2.166724e-002  3.242731e-002  0.000000e+000
    endloop
  endfacet
  facet normal -6.343933e-001  7.730104e-001  0.000000e+000
    outer loop
      vertex -2.166724e-002  3.242731e-002  0.000000e+000
      vertex -2.757717e-002  2.757717e-002  2.480000e-001
      vertex -2.166724e-002  3.242731e-002  2.480000e-001
    endloop
  endfacet
  facet normal -4.713970e-001  8.819211e-001  0.000000e+000
    outer loop
      vertex -2.166724e-002  3.242731e-002  0.000000e+000
      vertex -2.166724e-002  3.242731e-002  2.480000e-001
      vertex -1.492465e-002  3.603131e-002  0.000000e+000
    endloop
  endfacet
  facet normal -4.713970e-001  8.819211e-001  0.000000e+000
    outer loop
      vertex -1.492465e-002  3.603131e-002  0.000000e+000
      vertex -2.166724e-002  3.242731e-002  2.480000e-001
      vertex -1.492465e-002  3.603131e-002  2.480000e-001
    endloop
  endfacet
  facet normal -2.902845e-001  9.569405e-001  0.000000e+000
    outer loop
      vertex -1.492465e-002  3.603131e-002  0.000000e+000
      vertex -1.492465e-002  3.603131e-002  2.480000e-001
      vertex -7.608523e-003  3.825063e-002  0.000000e+000
    endloop
  endfacet
  facet normal -2.902845e-001  9.569405e-001  0.000000e+000
    outer loop
      vertex -7.608523e-003  3.825063e-002  0.000000e+000
      vertex -1.492465e-002  3.603131e-002  2.480000e-001
      vertex -7.608523e-003  3.825063e-002  2.480000e-001
    endloop
  endfacet
  facet normal -9.801718e-002  9.951847e-001  0.000000e+000
    outer loop
      vertex -7.608523e-003  3.825063e-002  0.000000e+000
      vertex -7.608523e-003  3.825063e-002  2.480000e-001
      vertex  2.387983e-018  3.900000e-002  0.000000e+000
    endloop
  endfacet
  facet normal -9.801718e-002  9.951847e-001  0.000000e+000
    outer loop
      vertex  2.387983e-018  3.900000e-002  0.000000e+000
      vertex -7.608523e-003  3.825063e-002  2.480000e-001
      vertex  2.387983e-018  3.900000e-002  2.480000e-001
    endloop
  endfacet
  facet normal  9.801718e-002  9.951847e-001  0.000000e+000
    outer loop
      vertex  2.387983e-018  3.900000e-002  0.000000e+000
      vertex  2.387983e-018  3.900000e-002  2.480000e-001
      vertex  7.608523e-003  3.825063e-002  0.000000e+000
    endloop
  endfacet
  facet normal  9.801718e-002  9.951847e-001  -0.000000e+000
    outer loop
      vertex  7.608523e-003  3.825063e-002  0.000000e+000
      vertex  2.387983e-018  3.900000e-002  2.480000e-001
      vertex  7.608523e-003  3.825063e-002  2.480000e-001
    endloop
  endfacet
  facet normal  2.902845e-001  9.569405e-001  0.000000e+000
    outer loop
      vertex  7.608523e-003  3.825063e-002  0.000000e+000
      vertex  7.608523e-003  3.825063e-002  2.480000e-001
      vertex  1.492465e-002  3.603131e-002  0.000000e+000
    endloop
  endfacet
  facet normal  2.902845e-001  9.569405e-001  -0.000000e+000
    outer loop
      vertex  1.492465e-002  3.603131e-002  0.000000e+000
      vertex  7.608523e-003  3.825063e-002  2.480000e-001
      vertex  1.492465e-002  3.603131e-002  2.480000e-001
    endloop
  endfacet
  facet normal  4.713970e-001  8.819211e-001  0.000000e+000
    outer loop
      vertex  1.492465e-002  3.603131e-002  0.000000e+000
      vertex  1.492465e-002  3.603131e-002  2.480000e-001
      vertex  2.166724e-002  3.242731e-002  0.000000e+000
    endloop
  endfacet
  facet normal  4.713970e-001  8.819211e-001  -0.000000e+000
    outer loop
      vertex  2.166724e-002  3.242731e-002  0.000000e+000
      vertex  1.492465e-002  3.603131e-002  2.480000e-001
      vertex  2.166724e-002  3.242731e-002  2.480000e-001
    endloop
  endfacet
  facet normal  6.343933e-001  7.730104e-001  0.000000e+000
    outer loop
      vertex  2.166724e-002  3.242731e-002  0.000000e+000
      vertex  2.166724e-002  3.242731e-002  2.480000e-001
      vertex  2.757717e-002  2.757717e-002  0.000000e+000
    endloop
  endfacet
  facet normal  6.343933e-001  7.730104e-001  -0.000000e+000
    outer loop
      vertex  2.757717e-002  2.757717e-002  0.000000e+000
      vertex  2.166724e-002  3.242731e-002  2.480000e-001
      vertex  2.757717e-002  2.757717e-002  2.480000e-001
    endloop
  endfacet
  facet normal  7.730104e-001  6.343933e-001  0.000000e+000
    outer loop
      vertex  2.757717e-002  2.757717e-002  0.000000e+000
      vertex  2.757717e-002  2.757717e-002  2.480000e-001
      vertex  3.242731e-002  2.166724e-002  0.000000e+000
    endloop
  endfacet
  facet normal  7.730104e-001  6.343933e-001  -0.000000e+000
    outer loop
      vertex  3.242731e-002  2.166724e-002  0.000000e+000
      vertex  2.757717e-002  2.757717e-002  2.480000e-001
      vertex  3.242731e-002  2.166724e-002  2.480000e-001
    endloop
  endfacet
  facet normal  8.819211e-001  4.713970e-001  0.000000e+000
    outer loop
      vertex  3.242731e-002  2.166724e-002  0.000000e+000
      vertex  3.242731e-002  2.166724e-002  2.480000e-001
      vertex  3.603131e-002  1.492465e-002  0.000000e+000
    endloop
  endfacet
  facet normal  8.819211e-001  4.713970e-001  -0.000000e+000
    outer loop
      vertex  3.603131e-002  1.492465e-002  0.000000e+000
      vertex  3.242731e-002  2.166724e-002  2.480000e-001
      vertex  3.603131e-002  1.492465e-002  2.480000e-001
    endloop
  endfacet
  facet normal  9.569405e-001  2.902845e-001  0.000000e+000
    outer loop
      vertex  3.603131e-002  1.492465e-002  0.000000e+000
      vertex  3.603131e-002  1.492465e-002  2.480000e-001
      vertex  3.825063e-002  7.608523e-003  0.000000e+000
    endloop
  endfacet
  facet normal  9.569405e-001  2.902845e-001  -0.000000e+000
    outer loop
      vertex  3.825063e-002  7.608523e-003  0.000000e+000
      vertex  3.603131e-002  1.492465e-002  2.480000e-001
      vertex  3.825063e-002  7.608523e-003  2.480000e-001
    endloop
  endfacet
  facet normal  9.951847e-001  9.801718e-002  0.000000e+000
    outer loop
      vertex  3.825063e-002  7.608523e-003  0.000000e+000
      vertex  3.825063e-002  7.608523e-003  2.480000e-001
      vertex  3.900000e-002  0.000000e+000  0.000000e+000
    endloop
  endfacet
  facet normal  9.951847e-001  9.801718e-002  -0.000000e+000
    outer loop
      vertex  3.900000e-002  0.000000e+000  0.000000e+000
      vertex  3.825063e-002  7.608523e-003  2.480000e-001
      vertex  3.900000e-002  0.000000e+000  2.480000e-001
    endloop
  endfacet
endsolid CATIA STL
