solid CATIA STL
  facet normal  -0.000000e+000  0.000000e+000  1.000000e+000
    outer loop
      vertex  3.397175e-003  3.232196e-002  1.230000e-001
      vertex -3.397175e-003  3.232196e-002  1.230000e-001
      vertex  1.004305e-002  3.090934e-002  1.230000e-001
    endloop
  endfacet
  facet normal  0.000000e+000  0.000000e+000  1.000000e+000
    outer loop
      vertex  1.004305e-002  3.090934e-002  1.230000e-001
      vertex -3.397175e-003  3.232196e-002  1.230000e-001
      vertex -1.004305e-002  3.090934e-002  1.230000e-001
    endloop
  endfacet
  facet normal  -0.000000e+000  0.000000e+000  1.000000e+000
    outer loop
      vertex  1.004305e-002  3.090934e-002  1.230000e-001
      vertex -1.004305e-002  3.090934e-002  1.230000e-001
      vertex  1.625000e-002  2.814583e-002  1.230000e-001
    endloop
  endfacet
  facet normal  0.000000e+000  0.000000e+000  1.000000e+000
    outer loop
      vertex  1.625000e-002  2.814583e-002  1.230000e-001
      vertex -1.004305e-002  3.090934e-002  1.230000e-001
      vertex -1.625000e-002  2.814583e-002  1.230000e-001
    endloop
  endfacet
  facet normal  -0.000000e+000  0.000000e+000  1.000000e+000
    outer loop
      vertex  1.625000e-002  2.814583e-002  1.230000e-001
      vertex -1.625000e-002  2.814583e-002  1.230000e-001
      vertex  2.174675e-002  2.415221e-002  1.230000e-001
    endloop
  endfacet
  facet normal  0.000000e+000  0.000000e+000  1.000000e+000
    outer loop
      vertex  2.174675e-002  2.415221e-002  1.230000e-001
      vertex -1.625000e-002  2.814583e-002  1.230000e-001
      vertex -2.174675e-002  2.415221e-002  1.230000e-001
    endloop
  endfacet
  facet normal  -0.000000e+000  0.000000e+000  1.000000e+000
    outer loop
      vertex  2.174675e-002  2.415221e-002  1.230000e-001
      vertex -2.174675e-002  2.415221e-002  1.230000e-001
      vertex  2.629305e-002  1.910302e-002  1.230000e-001
    endloop
  endfacet
  facet normal  0.000000e+000  0.000000e+000  1.000000e+000
    outer loop
      vertex  2.629305e-002  1.910302e-002  1.230000e-001
      vertex -2.174675e-002  2.415221e-002  1.230000e-001
      vertex -2.629305e-002  1.910302e-002  1.230000e-001
    endloop
  endfacet
  facet normal  -0.000000e+000  0.000000e+000  1.000000e+000
    outer loop
      vertex  2.629305e-002  1.910302e-002  1.230000e-001
      vertex -2.629305e-002  1.910302e-002  1.230000e-001
      vertex  2.969023e-002  1.321894e-002  1.230000e-001
    endloop
  endfacet
  facet normal  0.000000e+000  0.000000e+000  9.999999e-001
    outer loop
      vertex  2.969023e-002  1.321894e-002  1.230000e-001
      vertex -2.629305e-002  1.910302e-002  1.230000e-001
      vertex -2.969023e-002  1.321894e-002  1.230000e-001
    endloop
  endfacet
  facet normal  -0.000000e+000  0.000000e+000  1.000000e+000
    outer loop
      vertex  2.969023e-002  1.321894e-002  1.230000e-001
      vertex -2.969023e-002  1.321894e-002  1.230000e-001
      vertex  3.178980e-002  6.757130e-003  1.230000e-001
    endloop
  endfacet
  facet normal  0.000000e+000  0.000000e+000  1.000000e+000
    outer loop
      vertex  3.178980e-002  6.757130e-003  1.230000e-001
      vertex -2.969023e-002  1.321894e-002  1.230000e-001
      vertex -3.178980e-002  6.757130e-003  1.230000e-001
    endloop
  endfacet
  facet normal  -0.000000e+000  0.000000e+000  1.000000e+000
    outer loop
      vertex  3.178980e-002  6.757130e-003  1.230000e-001
      vertex -3.178980e-002  6.757130e-003  1.230000e-001
      vertex  3.250000e-002  0.000000e+000  1.230000e-001
    endloop
  endfacet
  facet normal  0.000000e+000  0.000000e+000  1.000000e+000
    outer loop
      vertex  3.250000e-002  0.000000e+000  1.230000e-001
      vertex -3.178980e-002  6.757130e-003  1.230000e-001
      vertex -3.250000e-002  3.979971e-018  1.230000e-001
    endloop
  endfacet
  facet normal  0.000000e+000  0.000000e+000  1.000000e+000
    outer loop
      vertex  3.250000e-002  0.000000e+000  1.230000e-001
      vertex -3.250000e-002  3.979971e-018  1.230000e-001
      vertex  3.178980e-002 -6.757130e-003  1.230000e-001
    endloop
  endfacet
  facet normal  0.000000e+000  0.000000e+000  1.000000e+000
    outer loop
      vertex  3.178980e-002 -6.757130e-003  1.230000e-001
      vertex -3.250000e-002  3.979971e-018  1.230000e-001
      vertex -3.178980e-002 -6.757130e-003  1.230000e-001
    endloop
  endfacet
  facet normal  -0.000000e+000  0.000000e+000  1.000000e+000
    outer loop
      vertex  3.178980e-002 -6.757130e-003  1.230000e-001
      vertex -3.178980e-002 -6.757130e-003  1.230000e-001
      vertex  2.969023e-002 -1.321894e-002  1.230000e-001
    endloop
  endfacet
  facet normal  0.000000e+000  0.000000e+000  1.000000e+000
    outer loop
      vertex  2.969023e-002 -1.321894e-002  1.230000e-001
      vertex -3.178980e-002 -6.757130e-003  1.230000e-001
      vertex -2.969023e-002 -1.321894e-002  1.230000e-001
    endloop
  endfacet
  facet normal  -0.000000e+000  0.000000e+000  9.999999e-001
    outer loop
      vertex  2.969023e-002 -1.321894e-002  1.230000e-001
      vertex -2.969023e-002 -1.321894e-002  1.230000e-001
      vertex  2.629305e-002 -1.910302e-002  1.230000e-001
    endloop
  endfacet
  facet normal  0.000000e+000  0.000000e+000  1.000000e+000
    outer loop
      vertex  2.629305e-002 -1.910302e-002  1.230000e-001
      vertex -2.969023e-002 -1.321894e-002  1.230000e-001
      vertex -2.629305e-002 -1.910302e-002  1.230000e-001
    endloop
  endfacet
  facet normal  -0.000000e+000  0.000000e+000  1.000000e+000
    outer loop
      vertex  2.629305e-002 -1.910302e-002  1.230000e-001
      vertex -2.629305e-002 -1.910302e-002  1.230000e-001
      vertex  2.174675e-002 -2.415221e-002  1.230000e-001
    endloop
  endfacet
  facet normal  0.000000e+000  0.000000e+000  1.000000e+000
    outer loop
      vertex  2.174675e-002 -2.415221e-002  1.230000e-001
      vertex -2.629305e-002 -1.910302e-002  1.230000e-001
      vertex -2.174675e-002 -2.415221e-002  1.230000e-001
    endloop
  endfacet
  facet normal  -0.000000e+000  0.000000e+000  1.000000e+000
    outer loop
      vertex  2.174675e-002 -2.415221e-002  1.230000e-001
      vertex -2.174675e-002 -2.415221e-002  1.230000e-001
      vertex  1.625000e-002 -2.814583e-002  1.230000e-001
    endloop
  endfacet
  facet normal  0.000000e+000  0.000000e+000  1.000000e+000
    outer loop
      vertex  1.625000e-002 -2.814583e-002  1.230000e-001
      vertex -2.174675e-002 -2.415221e-002  1.230000e-001
      vertex -1.625000e-002 -2.814583e-002  1.230000e-001
    endloop
  endfacet
  facet normal  -0.000000e+000  0.000000e+000  1.000000e+000
    outer loop
      vertex  1.625000e-002 -2.814583e-002  1.230000e-001
      vertex -1.625000e-002 -2.814583e-002  1.230000e-001
      vertex  1.004305e-002 -3.090934e-002  1.230000e-001
    endloop
  endfacet
  facet normal  0.000000e+000  0.000000e+000  1.000000e+000
    outer loop
      vertex  1.004305e-002 -3.090934e-002  1.230000e-001
      vertex -1.625000e-002 -2.814583e-002  1.230000e-001
      vertex -1.004305e-002 -3.090934e-002  1.230000e-001
    endloop
  endfacet
  facet normal  -0.000000e+000  0.000000e+000  1.000000e+000
    outer loop
      vertex  1.004305e-002 -3.090934e-002  1.230000e-001
      vertex -1.004305e-002 -3.090934e-002  1.230000e-001
      vertex  3.397175e-003 -3.232196e-002  1.230000e-001
    endloop
  endfacet
  facet normal  0.000000e+000  0.000000e+000  1.000000e+000
    outer loop
      vertex  3.397175e-003 -3.232196e-002  1.230000e-001
      vertex -1.004305e-002 -3.090934e-002  1.230000e-001
      vertex -3.397175e-003 -3.232196e-002  1.230000e-001
    endloop
  endfacet
  facet normal  -0.000000e+000  0.000000e+000 -1.000000e+000
    outer loop
      vertex -3.397175e-003  3.232196e-002  0.000000e+000
      vertex  3.397175e-003  3.232196e-002  0.000000e+000
      vertex -1.004305e-002  3.090934e-002  0.000000e+000
    endloop
  endfacet
  facet normal  0.000000e+000  0.000000e+000 -1.000000e+000
    outer loop
      vertex -1.004305e-002  3.090934e-002  0.000000e+000
      vertex  3.397175e-003  3.232196e-002  0.000000e+000
      vertex  1.004305e-002  3.090934e-002  0.000000e+000
    endloop
  endfacet
  facet normal  -0.000000e+000  0.000000e+000 -1.000000e+000
    outer loop
      vertex -1.004305e-002  3.090934e-002  0.000000e+000
      vertex  1.004305e-002  3.090934e-002  0.000000e+000
      vertex -1.625000e-002  2.814583e-002  0.000000e+000
    endloop
  endfacet
  facet normal  0.000000e+000  0.000000e+000 -1.000000e+000
    outer loop
      vertex -1.625000e-002  2.814583e-002  0.000000e+000
      vertex  1.004305e-002  3.090934e-002  0.000000e+000
      vertex  1.625000e-002  2.814583e-002  0.000000e+000
    endloop
  endfacet
  facet normal  -0.000000e+000  0.000000e+000 -1.000000e+000
    outer loop
      vertex -1.625000e-002  2.814583e-002  0.000000e+000
      vertex  1.625000e-002  2.814583e-002  0.000000e+000
      vertex -2.174675e-002  2.415221e-002  0.000000e+000
    endloop
  endfacet
  facet normal  0.000000e+000  0.000000e+000 -1.000000e+000
    outer loop
      vertex -2.174675e-002  2.415221e-002  0.000000e+000
      vertex  1.625000e-002  2.814583e-002  0.000000e+000
      vertex  2.174675e-002  2.415221e-002  0.000000e+000
    endloop
  endfacet
  facet normal  -0.000000e+000  0.000000e+000 -1.000000e+000
    outer loop
      vertex -2.174675e-002  2.415221e-002  0.000000e+000
      vertex  2.174675e-002  2.415221e-002  0.000000e+000
      vertex -2.629305e-002  1.910302e-002  0.000000e+000
    endloop
  endfacet
  facet normal  0.000000e+000  0.000000e+000 -1.000000e+000
    outer loop
      vertex -2.629305e-002  1.910302e-002  0.000000e+000
      vertex  2.174675e-002  2.415221e-002  0.000000e+000
      vertex  2.629305e-002  1.910302e-002  0.000000e+000
    endloop
  endfacet
  facet normal  -0.000000e+000  0.000000e+000 -1.000000e+000
    outer loop
      vertex -2.629305e-002  1.910302e-002  0.000000e+000
      vertex  2.629305e-002  1.910302e-002  0.000000e+000
      vertex -2.969023e-002  1.321894e-002  0.000000e+000
    endloop
  endfacet
  facet normal  0.000000e+000  0.000000e+000 -9.999999e-001
    outer loop
      vertex -2.969023e-002  1.321894e-002  0.000000e+000
      vertex  2.629305e-002  1.910302e-002  0.000000e+000
      vertex  2.969023e-002  1.321894e-002  0.000000e+000
    endloop
  endfacet
  facet normal  -0.000000e+000  0.000000e+000 -1.000000e+000
    outer loop
      vertex -2.969023e-002  1.321894e-002  0.000000e+000
      vertex  2.969023e-002  1.321894e-002  0.000000e+000
      vertex -3.178980e-002  6.757130e-003  0.000000e+000
    endloop
  endfacet
  facet normal  0.000000e+000  0.000000e+000 -1.000000e+000
    outer loop
      vertex -3.178980e-002  6.757130e-003  0.000000e+000
      vertex  2.969023e-002  1.321894e-002  0.000000e+000
      vertex  3.178980e-002  6.757130e-003  0.000000e+000
    endloop
  endfacet
  facet normal  -0.000000e+000  0.000000e+000 -1.000000e+000
    outer loop
      vertex -3.178980e-002  6.757130e-003  0.000000e+000
      vertex  3.178980e-002  6.757130e-003  0.000000e+000
      vertex -3.250000e-002  3.979971e-018  0.000000e+000
    endloop
  endfacet
  facet normal  0.000000e+000  0.000000e+000 -1.000000e+000
    outer loop
      vertex -3.250000e-002  3.979971e-018  0.000000e+000
      vertex  3.178980e-002  6.757130e-003  0.000000e+000
      vertex  3.250000e-002  0.000000e+000  0.000000e+000
    endloop
  endfacet
  facet normal  -0.000000e+000  0.000000e+000 -1.000000e+000
    outer loop
      vertex -3.250000e-002  3.979971e-018  0.000000e+000
      vertex  3.250000e-002  0.000000e+000  0.000000e+000
      vertex -3.178980e-002 -6.757130e-003  0.000000e+000
    endloop
  endfacet
  facet normal  0.000000e+000  0.000000e+000 -1.000000e+000
    outer loop
      vertex -3.178980e-002 -6.757130e-003  0.000000e+000
      vertex  3.250000e-002  0.000000e+000  0.000000e+000
      vertex  3.178980e-002 -6.757130e-003  0.000000e+000
    endloop
  endfacet
  facet normal  -0.000000e+000  0.000000e+000 -1.000000e+000
    outer loop
      vertex -3.178980e-002 -6.757130e-003  0.000000e+000
      vertex  3.178980e-002 -6.757130e-003  0.000000e+000
      vertex -2.969023e-002 -1.321894e-002  0.000000e+000
    endloop
  endfacet
  facet normal  0.000000e+000  0.000000e+000 -1.000000e+000
    outer loop
      vertex -2.969023e-002 -1.321894e-002  0.000000e+000
      vertex  3.178980e-002 -6.757130e-003  0.000000e+000
      vertex  2.969023e-002 -1.321894e-002  0.000000e+000
    endloop
  endfacet
  facet normal  -0.000000e+000  0.000000e+000 -9.999999e-001
    outer loop
      vertex -2.969023e-002 -1.321894e-002  0.000000e+000
      vertex  2.969023e-002 -1.321894e-002  0.000000e+000
      vertex -2.629305e-002 -1.910302e-002  0.000000e+000
    endloop
  endfacet
  facet normal  0.000000e+000  0.000000e+000 -1.000000e+000
    outer loop
      vertex -2.629305e-002 -1.910302e-002  0.000000e+000
      vertex  2.969023e-002 -1.321894e-002  0.000000e+000
      vertex  2.629305e-002 -1.910302e-002  0.000000e+000
    endloop
  endfacet
  facet normal  -0.000000e+000  0.000000e+000 -1.000000e+000
    outer loop
      vertex -2.629305e-002 -1.910302e-002  0.000000e+000
      vertex  2.629305e-002 -1.910302e-002  0.000000e+000
      vertex -2.174675e-002 -2.415221e-002  0.000000e+000
    endloop
  endfacet
  facet normal  0.000000e+000  0.000000e+000 -1.000000e+000
    outer loop
      vertex -2.174675e-002 -2.415221e-002  0.000000e+000
      vertex  2.629305e-002 -1.910302e-002  0.000000e+000
      vertex  2.174675e-002 -2.415221e-002  0.000000e+000
    endloop
  endfacet
  facet normal  -0.000000e+000  0.000000e+000 -1.000000e+000
    outer loop
      vertex -2.174675e-002 -2.415221e-002  0.000000e+000
      vertex  2.174675e-002 -2.415221e-002  0.000000e+000
      vertex -1.625000e-002 -2.814583e-002  0.000000e+000
    endloop
  endfacet
  facet normal  0.000000e+000  0.000000e+000 -1.000000e+000
    outer loop
      vertex -1.625000e-002 -2.814583e-002  0.000000e+000
      vertex  2.174675e-002 -2.415221e-002  0.000000e+000
      vertex  1.625000e-002 -2.814583e-002  0.000000e+000
    endloop
  endfacet
  facet normal  -0.000000e+000  0.000000e+000 -1.000000e+000
    outer loop
      vertex -1.625000e-002 -2.814583e-002  0.000000e+000
      vertex  1.625000e-002 -2.814583e-002  0.000000e+000
      vertex -1.004305e-002 -3.090934e-002  0.000000e+000
    endloop
  endfacet
  facet normal  0.000000e+000  0.000000e+000 -1.000000e+000
    outer loop
      vertex -1.004305e-002 -3.090934e-002  0.000000e+000
      vertex  1.625000e-002 -2.814583e-002  0.000000e+000
      vertex  1.004305e-002 -3.090934e-002  0.000000e+000
    endloop
  endfacet
  facet normal  -0.000000e+000  0.000000e+000 -1.000000e+000
    outer loop
      vertex -1.004305e-002 -3.090934e-002  0.000000e+000
      vertex  1.004305e-002 -3.090934e-002  0.000000e+000
      vertex -3.397175e-003 -3.232196e-002  0.000000e+000
    endloop
  endfacet
  facet normal  0.000000e+000  0.000000e+000 -1.000000e+000
    outer loop
      vertex -3.397175e-003 -3.232196e-002  0.000000e+000
      vertex  1.004305e-002 -3.090934e-002  0.000000e+000
      vertex  3.397175e-003 -3.232196e-002  0.000000e+000
    endloop
  endfacet
  facet normal  9.945219e-001 -1.045285e-001  0.000000e+000
    outer loop
      vertex  3.250000e-002  0.000000e+000  0.000000e+000
      vertex  3.250000e-002  0.000000e+000  1.230000e-001
      vertex  3.178980e-002 -6.757130e-003  0.000000e+000
    endloop
  endfacet
  facet normal  9.945219e-001 -1.045285e-001  0.000000e+000
    outer loop
      vertex  3.178980e-002 -6.757130e-003  0.000000e+000
      vertex  3.250000e-002  0.000000e+000  1.230000e-001
      vertex  3.178980e-002 -6.757130e-003  1.230000e-001
    endloop
  endfacet
  facet normal  9.510565e-001 -3.090170e-001  0.000000e+000
    outer loop
      vertex  3.178980e-002 -6.757130e-003  0.000000e+000
      vertex  3.178980e-002 -6.757130e-003  1.230000e-001
      vertex  2.969023e-002 -1.321894e-002  0.000000e+000
    endloop
  endfacet
  facet normal  9.510565e-001 -3.090170e-001  0.000000e+000
    outer loop
      vertex  2.969023e-002 -1.321894e-002  0.000000e+000
      vertex  3.178980e-002 -6.757130e-003  1.230000e-001
      vertex  2.969023e-002 -1.321894e-002  1.230000e-001
    endloop
  endfacet
  facet normal  8.660255e-001 -4.999999e-001  0.000000e+000
    outer loop
      vertex  2.969023e-002 -1.321894e-002  0.000000e+000
      vertex  2.969023e-002 -1.321894e-002  1.230000e-001
      vertex  2.629305e-002 -1.910302e-002  0.000000e+000
    endloop
  endfacet
  facet normal  8.660255e-001 -4.999999e-001  0.000000e+000
    outer loop
      vertex  2.629305e-002 -1.910302e-002  0.000000e+000
      vertex  2.969023e-002 -1.321894e-002  1.230000e-001
      vertex  2.629305e-002 -1.910302e-002  1.230000e-001
    endloop
  endfacet
  facet normal  7.431447e-001 -6.691307e-001  0.000000e+000
    outer loop
      vertex  2.629305e-002 -1.910302e-002  0.000000e+000
      vertex  2.629305e-002 -1.910302e-002  1.230000e-001
      vertex  2.174675e-002 -2.415221e-002  0.000000e+000
    endloop
  endfacet
  facet normal  7.431447e-001 -6.691307e-001  0.000000e+000
    outer loop
      vertex  2.174675e-002 -2.415221e-002  0.000000e+000
      vertex  2.629305e-002 -1.910302e-002  1.230000e-001
      vertex  2.174675e-002 -2.415221e-002  1.230000e-001
    endloop
  endfacet
  facet normal  5.877854e-001 -8.090169e-001  0.000000e+000
    outer loop
      vertex  2.174675e-002 -2.415221e-002  0.000000e+000
      vertex  2.174675e-002 -2.415221e-002  1.230000e-001
      vertex  1.625000e-002 -2.814583e-002  0.000000e+000
    endloop
  endfacet
  facet normal  5.877854e-001 -8.090169e-001  0.000000e+000
    outer loop
      vertex  1.625000e-002 -2.814583e-002  0.000000e+000
      vertex  2.174675e-002 -2.415221e-002  1.230000e-001
      vertex  1.625000e-002 -2.814583e-002  1.230000e-001
    endloop
  endfacet
  facet normal  4.067365e-001 -9.135455e-001  0.000000e+000
    outer loop
      vertex  1.625000e-002 -2.814583e-002  0.000000e+000
      vertex  1.625000e-002 -2.814583e-002  1.230000e-001
      vertex  1.004305e-002 -3.090934e-002  0.000000e+000
    endloop
  endfacet
  facet normal  4.067365e-001 -9.135455e-001  0.000000e+000
    outer loop
      vertex  1.004305e-002 -3.090934e-002  0.000000e+000
      vertex  1.625000e-002 -2.814583e-002  1.230000e-001
      vertex  1.004305e-002 -3.090934e-002  1.230000e-001
    endloop
  endfacet
  facet normal  2.079116e-001 -9.781476e-001  0.000000e+000
    outer loop
      vertex  1.004305e-002 -3.090934e-002  0.000000e+000
      vertex  1.004305e-002 -3.090934e-002  1.230000e-001
      vertex  3.397175e-003 -3.232196e-002  0.000000e+000
    endloop
  endfacet
  facet normal  2.079116e-001 -9.781476e-001  0.000000e+000
    outer loop
      vertex  3.397175e-003 -3.232196e-002  0.000000e+000
      vertex  1.004305e-002 -3.090934e-002  1.230000e-001
      vertex  3.397175e-003 -3.232196e-002  1.230000e-001
    endloop
  endfacet
  facet normal  0.000000e+000 -9.999999e-001  -0.000000e+000
    outer loop
      vertex  3.397175e-003 -3.232196e-002  0.000000e+000
      vertex  3.397175e-003 -3.232196e-002  1.230000e-001
      vertex -3.397175e-003 -3.232196e-002  0.000000e+000
    endloop
  endfacet
  facet normal  0.000000e+000 -9.999999e-001  0.000000e+000
    outer loop
      vertex -3.397175e-003 -3.232196e-002  0.000000e+000
      vertex  3.397175e-003 -3.232196e-002  1.230000e-001
      vertex -3.397175e-003 -3.232196e-002  1.230000e-001
    endloop
  endfacet
  facet normal -2.079116e-001 -9.781476e-001  -0.000000e+000
    outer loop
      vertex -3.397175e-003 -3.232196e-002  0.000000e+000
      vertex -3.397175e-003 -3.232196e-002  1.230000e-001
      vertex -1.004305e-002 -3.090934e-002  0.000000e+000
    endloop
  endfacet
  facet normal -2.079116e-001 -9.781476e-001  0.000000e+000
    outer loop
      vertex -1.004305e-002 -3.090934e-002  0.000000e+000
      vertex -3.397175e-003 -3.232196e-002  1.230000e-001
      vertex -1.004305e-002 -3.090934e-002  1.230000e-001
    endloop
  endfacet
  facet normal -4.067365e-001 -9.135455e-001  -0.000000e+000
    outer loop
      vertex -1.004305e-002 -3.090934e-002  0.000000e+000
      vertex -1.004305e-002 -3.090934e-002  1.230000e-001
      vertex -1.625000e-002 -2.814583e-002  0.000000e+000
    endloop
  endfacet
  facet normal -4.067365e-001 -9.135455e-001  0.000000e+000
    outer loop
      vertex -1.625000e-002 -2.814583e-002  0.000000e+000
      vertex -1.004305e-002 -3.090934e-002  1.230000e-001
      vertex -1.625000e-002 -2.814583e-002  1.230000e-001
    endloop
  endfacet
  facet normal -5.877854e-001 -8.090169e-001  -0.000000e+000
    outer loop
      vertex -1.625000e-002 -2.814583e-002  0.000000e+000
      vertex -1.625000e-002 -2.814583e-002  1.230000e-001
      vertex -2.174675e-002 -2.415221e-002  0.000000e+000
    endloop
  endfacet
  facet normal -5.877854e-001 -8.090169e-001  0.000000e+000
    outer loop
      vertex -2.174675e-002 -2.415221e-002  0.000000e+000
      vertex -1.625000e-002 -2.814583e-002  1.230000e-001
      vertex -2.174675e-002 -2.415221e-002  1.230000e-001
    endloop
  endfacet
  facet normal -7.431447e-001 -6.691307e-001  -0.000000e+000
    outer loop
      vertex -2.174675e-002 -2.415221e-002  0.000000e+000
      vertex -2.174675e-002 -2.415221e-002  1.230000e-001
      vertex -2.629305e-002 -1.910302e-002  0.000000e+000
    endloop
  endfacet
  facet normal -7.431447e-001 -6.691307e-001  0.000000e+000
    outer loop
      vertex -2.629305e-002 -1.910302e-002  0.000000e+000
      vertex -2.174675e-002 -2.415221e-002  1.230000e-001
      vertex -2.629305e-002 -1.910302e-002  1.230000e-001
    endloop
  endfacet
  facet normal -8.660255e-001 -4.999999e-001  -0.000000e+000
    outer loop
      vertex -2.629305e-002 -1.910302e-002  0.000000e+000
      vertex -2.629305e-002 -1.910302e-002  1.230000e-001
      vertex -2.969023e-002 -1.321894e-002  0.000000e+000
    endloop
  endfacet
  facet normal -8.660255e-001 -4.999999e-001  0.000000e+000
    outer loop
      vertex -2.969023e-002 -1.321894e-002  0.000000e+000
      vertex -2.629305e-002 -1.910302e-002  1.230000e-001
      vertex -2.969023e-002 -1.321894e-002  1.230000e-001
    endloop
  endfacet
  facet normal -9.510565e-001 -3.090170e-001  -0.000000e+000
    outer loop
      vertex -2.969023e-002 -1.321894e-002  0.000000e+000
      vertex -2.969023e-002 -1.321894e-002  1.230000e-001
      vertex -3.178980e-002 -6.757130e-003  0.000000e+000
    endloop
  endfacet
  facet normal -9.510565e-001 -3.090170e-001  0.000000e+000
    outer loop
      vertex -3.178980e-002 -6.757130e-003  0.000000e+000
      vertex -2.969023e-002 -1.321894e-002  1.230000e-001
      vertex -3.178980e-002 -6.757130e-003  1.230000e-001
    endloop
  endfacet
  facet normal -9.945219e-001 -1.045285e-001  -0.000000e+000
    outer loop
      vertex -3.178980e-002 -6.757130e-003  0.000000e+000
      vertex -3.178980e-002 -6.757130e-003  1.230000e-001
      vertex -3.250000e-002  3.979971e-018  0.000000e+000
    endloop
  endfacet
  facet normal -9.945219e-001 -1.045285e-001  0.000000e+000
    outer loop
      vertex -3.250000e-002  3.979971e-018  0.000000e+000
      vertex -3.178980e-002 -6.757130e-003  1.230000e-001
      vertex -3.250000e-002  3.979971e-018  1.230000e-001
    endloop
  endfacet
  facet normal -9.945219e-001  1.045285e-001  0.000000e+000
    outer loop
      vertex -3.250000e-002  3.979971e-018  0.000000e+000
      vertex -3.250000e-002  3.979971e-018  1.230000e-001
      vertex -3.178980e-002  6.757130e-003  0.000000e+000
    endloop
  endfacet
  facet normal -9.945219e-001  1.045285e-001  0.000000e+000
    outer loop
      vertex -3.178980e-002  6.757130e-003  0.000000e+000
      vertex -3.250000e-002  3.979971e-018  1.230000e-001
      vertex -3.178980e-002  6.757130e-003  1.230000e-001
    endloop
  endfacet
  facet normal -9.510565e-001  3.090170e-001  0.000000e+000
    outer loop
      vertex -3.178980e-002  6.757130e-003  0.000000e+000
      vertex -3.178980e-002  6.757130e-003  1.230000e-001
      vertex -2.969023e-002  1.321894e-002  0.000000e+000
    endloop
  endfacet
  facet normal -9.510565e-001  3.090170e-001  0.000000e+000
    outer loop
      vertex -2.969023e-002  1.321894e-002  0.000000e+000
      vertex -3.178980e-002  6.757130e-003  1.230000e-001
      vertex -2.969023e-002  1.321894e-002  1.230000e-001
    endloop
  endfacet
  facet normal -8.660255e-001  4.999999e-001  0.000000e+000
    outer loop
      vertex -2.969023e-002  1.321894e-002  0.000000e+000
      vertex -2.969023e-002  1.321894e-002  1.230000e-001
      vertex -2.629305e-002  1.910302e-002  0.000000e+000
    endloop
  endfacet
  facet normal -8.660255e-001  4.999999e-001  0.000000e+000
    outer loop
      vertex -2.629305e-002  1.910302e-002  0.000000e+000
      vertex -2.969023e-002  1.321894e-002  1.230000e-001
      vertex -2.629305e-002  1.910302e-002  1.230000e-001
    endloop
  endfacet
  facet normal -7.431447e-001  6.691307e-001  0.000000e+000
    outer loop
      vertex -2.629305e-002  1.910302e-002  0.000000e+000
      vertex -2.629305e-002  1.910302e-002  1.230000e-001
      vertex -2.174675e-002  2.415221e-002  0.000000e+000
    endloop
  endfacet
  facet normal -7.431447e-001  6.691307e-001  0.000000e+000
    outer loop
      vertex -2.174675e-002  2.415221e-002  0.000000e+000
      vertex -2.629305e-002  1.910302e-002  1.230000e-001
      vertex -2.174675e-002  2.415221e-002  1.230000e-001
    endloop
  endfacet
  facet normal -5.877854e-001  8.090169e-001  0.000000e+000
    outer loop
      vertex -2.174675e-002  2.415221e-002  0.000000e+000
      vertex -2.174675e-002  2.415221e-002  1.230000e-001
      vertex -1.625000e-002  2.814583e-002  0.000000e+000
    endloop
  endfacet
  facet normal -5.877854e-001  8.090169e-001  0.000000e+000
    outer loop
      vertex -1.625000e-002  2.814583e-002  0.000000e+000
      vertex -2.174675e-002  2.415221e-002  1.230000e-001
      vertex -1.625000e-002  2.814583e-002  1.230000e-001
    endloop
  endfacet
  facet normal -4.067365e-001  9.135455e-001  0.000000e+000
    outer loop
      vertex -1.625000e-002  2.814583e-002  0.000000e+000
      vertex -1.625000e-002  2.814583e-002  1.230000e-001
      vertex -1.004305e-002  3.090934e-002  0.000000e+000
    endloop
  endfacet
  facet normal -4.067365e-001  9.135455e-001  0.000000e+000
    outer loop
      vertex -1.004305e-002  3.090934e-002  0.000000e+000
      vertex -1.625000e-002  2.814583e-002  1.230000e-001
      vertex -1.004305e-002  3.090934e-002  1.230000e-001
    endloop
  endfacet
  facet normal -2.079116e-001  9.781476e-001  0.000000e+000
    outer loop
      vertex -1.004305e-002  3.090934e-002  0.000000e+000
      vertex -1.004305e-002  3.090934e-002  1.230000e-001
      vertex -3.397175e-003  3.232196e-002  0.000000e+000
    endloop
  endfacet
  facet normal -2.079116e-001  9.781476e-001  0.000000e+000
    outer loop
      vertex -3.397175e-003  3.232196e-002  0.000000e+000
      vertex -1.004305e-002  3.090934e-002  1.230000e-001
      vertex -3.397175e-003  3.232196e-002  1.230000e-001
    endloop
  endfacet
  facet normal  0.000000e+000  9.999999e-001  0.000000e+000
    outer loop
      vertex -3.397175e-003  3.232196e-002  0.000000e+000
      vertex -3.397175e-003  3.232196e-002  1.230000e-001
      vertex  3.397175e-003  3.232196e-002  0.000000e+000
    endloop
  endfacet
  facet normal  0.000000e+000  9.999999e-001  -0.000000e+000
    outer loop
      vertex  3.397175e-003  3.232196e-002  0.000000e+000
      vertex -3.397175e-003  3.232196e-002  1.230000e-001
      vertex  3.397175e-003  3.232196e-002  1.230000e-001
    endloop
  endfacet
  facet normal  2.079116e-001  9.781476e-001  0.000000e+000
    outer loop
      vertex  3.397175e-003  3.232196e-002  0.000000e+000
      vertex  3.397175e-003  3.232196e-002  1.230000e-001
      vertex  1.004305e-002  3.090934e-002  0.000000e+000
    endloop
  endfacet
  facet normal  2.079116e-001  9.781476e-001  -0.000000e+000
    outer loop
      vertex  1.004305e-002  3.090934e-002  0.000000e+000
      vertex  3.397175e-003  3.232196e-002  1.230000e-001
      vertex  1.004305e-002  3.090934e-002  1.230000e-001
    endloop
  endfacet
  facet normal  4.067365e-001  9.135455e-001  0.000000e+000
    outer loop
      vertex  1.004305e-002  3.090934e-002  0.000000e+000
      vertex  1.004305e-002  3.090934e-002  1.230000e-001
      vertex  1.625000e-002  2.814583e-002  0.000000e+000
    endloop
  endfacet
  facet normal  4.067365e-001  9.135455e-001  -0.000000e+000
    outer loop
      vertex  1.625000e-002  2.814583e-002  0.000000e+000
      vertex  1.004305e-002  3.090934e-002  1.230000e-001
      vertex  1.625000e-002  2.814583e-002  1.230000e-001
    endloop
  endfacet
  facet normal  5.877854e-001  8.090169e-001  0.000000e+000
    outer loop
      vertex  1.625000e-002  2.814583e-002  0.000000e+000
      vertex  1.625000e-002  2.814583e-002  1.230000e-001
      vertex  2.174675e-002  2.415221e-002  0.000000e+000
    endloop
  endfacet
  facet normal  5.877854e-001  8.090169e-001  -0.000000e+000
    outer loop
      vertex  2.174675e-002  2.415221e-002  0.000000e+000
      vertex  1.625000e-002  2.814583e-002  1.230000e-001
      vertex  2.174675e-002  2.415221e-002  1.230000e-001
    endloop
  endfacet
  facet normal  7.431447e-001  6.691307e-001  0.000000e+000
    outer loop
      vertex  2.174675e-002  2.415221e-002  0.000000e+000
      vertex  2.174675e-002  2.415221e-002  1.230000e-001
      vertex  2.629305e-002  1.910302e-002  0.000000e+000
    endloop
  endfacet
  facet normal  7.431447e-001  6.691307e-001  -0.000000e+000
    outer loop
      vertex  2.629305e-002  1.910302e-002  0.000000e+000
      vertex  2.174675e-002  2.415221e-002  1.230000e-001
      vertex  2.629305e-002  1.910302e-002  1.230000e-001
    endloop
  endfacet
  facet normal  8.660255e-001  4.999999e-001  0.000000e+000
    outer loop
      vertex  2.629305e-002  1.910302e-002  0.000000e+000
      vertex  2.629305e-002  1.910302e-002  1.230000e-001
      vertex  2.969023e-002  1.321894e-002  0.000000e+000
    endloop
  endfacet
  facet normal  8.660255e-001  4.999999e-001  -0.000000e+000
    outer loop
      vertex  2.969023e-002  1.321894e-002  0.000000e+000
      vertex  2.629305e-002  1.910302e-002  1.230000e-001
      vertex  2.969023e-002  1.321894e-002  1.230000e-001
    endloop
  endfacet
  facet normal  9.510565e-001  3.090170e-001  0.000000e+000
    outer loop
      vertex  2.969023e-002  1.321894e-002  0.000000e+000
      vertex  2.969023e-002  1.321894e-002  1.230000e-001
      vertex  3.178980e-002  6.757130e-003  0.000000e+000
    endloop
  endfacet
  facet normal  9.510565e-001  3.090170e-001  -0.000000e+000
    outer loop
      vertex  3.178980e-002  6.757130e-003  0.000000e+000
      vertex  2.969023e-002  1.321894e-002  1.230000e-001
      vertex  3.178980e-002  6.757130e-003  1.230000e-001
    endloop
  endfacet
  facet normal  9.945219e-001  1.045285e-001  0.000000e+000
    outer loop
      vertex  3.178980e-002  6.757130e-003  0.000000e+000
      vertex  3.178980e-002  6.757130e-003  1.230000e-001
      vertex  3.250000e-002  0.000000e+000  0.000000e+000
    endloop
  endfacet
  facet normal  9.945219e-001  1.045285e-001  -0.000000e+000
    outer loop
      vertex  3.250000e-002  0.000000e+000  0.000000e+000
      vertex  3.178980e-002  6.757130e-003  1.230000e-001
      vertex  3.250000e-002  0.000000e+000  1.230000e-001
    endloop
  endfacet
endsolid CATIA STL
