solid CATIA STL
  facet normal  0.000000e+000  0.000000e+000 -1.000000e+000
    outer loop
      vertex -7.135000e-001 -2.575000e-001  0.000000e+000
      vertex -8.135000e-001 -2.575000e-001  0.000000e+000
      vertex -8.135000e-001  2.575000e-001  0.000000e+000
    endloop
  endfacet
  facet normal  0.000000e+000  0.000000e+000 -1.000000e+000
    outer loop
      vertex -7.135000e-001 -2.575000e-001  0.000000e+000
      vertex -8.135000e-001  2.575000e-001  0.000000e+000
      vertex -7.135000e-001  2.575000e-001  0.000000e+000
    endloop
  endfacet
  facet normal  0.000000e+000  0.000000e+000 -1.000000e+000
    outer loop
      vertex -7.135000e-001 -2.575000e-001  0.000000e+000
      vertex -7.135000e-001  2.575000e-001  0.000000e+000
      vertex  7.135000e-001  2.575000e-001  0.000000e+000
    endloop
  endfacet
  facet normal  0.000000e+000  -0.000000e+000 -1.000000e+000
    outer loop
      vertex -7.135000e-001 -2.575000e-001  0.000000e+000
      vertex  7.135000e-001  2.575000e-001  0.000000e+000
      vertex  7.135000e-001 -2.575000e-001  0.000000e+000
    endloop
  endfacet
  facet normal  -0.000000e+000  -0.000000e+000 -1.000000e+000
    outer loop
      vertex -7.135000e-001 -2.575000e-001  0.000000e+000
      vertex  7.135000e-001 -2.575000e-001  0.000000e+000
      vertex  7.135000e-001 -3.575000e-001  0.000000e+000
    endloop
  endfacet
  facet normal  0.000000e+000  0.000000e+000 -1.000000e+000
    outer loop
      vertex -7.135000e-001 -2.575000e-001  0.000000e+000
      vertex  7.135000e-001 -3.575000e-001  0.000000e+000
      vertex -7.135000e-001 -3.575000e-001  0.000000e+000
    endloop
  endfacet
  facet normal  -0.000000e+000  0.000000e+000 -1.000000e+000
    outer loop
      vertex -9.135001e-001  4.575000e-001  0.000000e+000
      vertex  9.135001e-001  4.575000e-001  0.000000e+000
      vertex  8.135000e-001  3.575000e-001  0.000000e+000
    endloop
  endfacet
  facet normal  0.000000e+000  0.000000e+000 -1.000000e+000
    outer loop
      vertex -9.135001e-001  4.575000e-001  0.000000e+000
      vertex  8.135000e-001  3.575000e-001  0.000000e+000
      vertex  7.135000e-001  3.575000e-001  0.000000e+000
    endloop
  endfacet
  facet normal  0.000000e+000  0.000000e+000 -1.000000e+000
    outer loop
      vertex -9.135001e-001  4.575000e-001  0.000000e+000
      vertex  7.135000e-001  3.575000e-001  0.000000e+000
      vertex -7.135000e-001  3.575000e-001  0.000000e+000
    endloop
  endfacet
  facet normal  0.000000e+000  0.000000e+000 -1.000000e+000
    outer loop
      vertex -9.135001e-001  4.575000e-001  0.000000e+000
      vertex -7.135000e-001  3.575000e-001  0.000000e+000
      vertex -8.135000e-001  3.575000e-001  0.000000e+000
    endloop
  endfacet
  facet normal  -0.000000e+000  -0.000000e+000 -1.000000e+000
    outer loop
      vertex -9.135001e-001  4.575000e-001  0.000000e+000
      vertex -8.135000e-001  3.575000e-001  0.000000e+000
      vertex -8.135000e-001  2.575000e-001  0.000000e+000
    endloop
  endfacet
  facet normal  -0.000000e+000  -0.000000e+000 -1.000000e+000
    outer loop
      vertex -9.135001e-001  4.575000e-001  0.000000e+000
      vertex -8.135000e-001  2.575000e-001  0.000000e+000
      vertex -8.135000e-001 -2.575000e-001  0.000000e+000
    endloop
  endfacet
  facet normal  -0.000000e+000  -0.000000e+000 -1.000000e+000
    outer loop
      vertex -9.135001e-001  4.575000e-001  0.000000e+000
      vertex -8.135000e-001 -2.575000e-001  0.000000e+000
      vertex -8.135000e-001 -3.575000e-001  0.000000e+000
    endloop
  endfacet
  facet normal  -0.000000e+000  0.000000e+000 -1.000000e+000
    outer loop
      vertex -9.135001e-001  4.575000e-001  0.000000e+000
      vertex -8.135000e-001 -3.575000e-001  0.000000e+000
      vertex -9.135001e-001 -4.575000e-001  0.000000e+000
    endloop
  endfacet
  facet normal  0.000000e+000  0.000000e+000 -1.000000e+000
    outer loop
      vertex  9.135001e-001  4.575000e-001  0.000000e+000
      vertex  9.135001e-001 -4.575000e-001  0.000000e+000
      vertex  8.135000e-001 -3.575000e-001  0.000000e+000
    endloop
  endfacet
  facet normal  0.000000e+000  0.000000e+000 -1.000000e+000
    outer loop
      vertex  9.135001e-001  4.575000e-001  0.000000e+000
      vertex  8.135000e-001 -3.575000e-001  0.000000e+000
      vertex  8.135000e-001 -2.575000e-001  0.000000e+000
    endloop
  endfacet
  facet normal  0.000000e+000  0.000000e+000 -1.000000e+000
    outer loop
      vertex  9.135001e-001  4.575000e-001  0.000000e+000
      vertex  8.135000e-001 -2.575000e-001  0.000000e+000
      vertex  8.135000e-001  2.575000e-001  0.000000e+000
    endloop
  endfacet
  facet normal  0.000000e+000  0.000000e+000 -1.000000e+000
    outer loop
      vertex  9.135001e-001  4.575000e-001  0.000000e+000
      vertex  8.135000e-001  2.575000e-001  0.000000e+000
      vertex  8.135000e-001  3.575000e-001  0.000000e+000
    endloop
  endfacet
  facet normal  0.000000e+000  -0.000000e+000 -1.000000e+000
    outer loop
      vertex -9.135001e-001 -4.575000e-001  0.000000e+000
      vertex -8.135000e-001 -3.575000e-001  0.000000e+000
      vertex -7.135000e-001 -3.575000e-001  0.000000e+000
    endloop
  endfacet
  facet normal  0.000000e+000  -0.000000e+000 -1.000000e+000
    outer loop
      vertex -9.135001e-001 -4.575000e-001  0.000000e+000
      vertex -7.135000e-001 -3.575000e-001  0.000000e+000
      vertex  7.135000e-001 -3.575000e-001  0.000000e+000
    endloop
  endfacet
  facet normal  0.000000e+000  -0.000000e+000 -1.000000e+000
    outer loop
      vertex -9.135001e-001 -4.575000e-001  0.000000e+000
      vertex  7.135000e-001 -3.575000e-001  0.000000e+000
      vertex  8.135000e-001 -3.575000e-001  0.000000e+000
    endloop
  endfacet
  facet normal  0.000000e+000  -0.000000e+000 -1.000000e+000
    outer loop
      vertex -9.135001e-001 -4.575000e-001  0.000000e+000
      vertex  8.135000e-001 -3.575000e-001  0.000000e+000
      vertex  9.135001e-001 -4.575000e-001  0.000000e+000
    endloop
  endfacet
  facet normal  0.000000e+000  0.000000e+000 -1.000000e+000
    outer loop
      vertex  7.135000e-001 -2.575000e-001  0.000000e+000
      vertex  7.135000e-001  2.575000e-001  0.000000e+000
      vertex  8.135000e-001 -2.575000e-001  0.000000e+000
    endloop
  endfacet
  facet normal  0.000000e+000  0.000000e+000 -1.000000e+000
    outer loop
      vertex  8.135000e-001 -2.575000e-001  0.000000e+000
      vertex  7.135000e-001  2.575000e-001  0.000000e+000
      vertex  8.135000e-001  2.575000e-001  0.000000e+000
    endloop
  endfacet
  facet normal  0.000000e+000  0.000000e+000 -1.000000e+000
    outer loop
      vertex  7.135000e-001  2.575000e-001  0.000000e+000
      vertex -7.135000e-001  2.575000e-001  0.000000e+000
      vertex  7.135000e-001  3.575000e-001  0.000000e+000
    endloop
  endfacet
  facet normal  -0.000000e+000  0.000000e+000 -1.000000e+000
    outer loop
      vertex  7.135000e-001  3.575000e-001  0.000000e+000
      vertex -7.135000e-001  2.575000e-001  0.000000e+000
      vertex -7.135000e-001  3.575000e-001  0.000000e+000
    endloop
  endfacet
  facet normal  0.000000e+000  1.000000e+000  0.000000e+000
    outer loop
      vertex  7.135000e-001  3.575000e-001 -8.130000e-001
      vertex  7.135000e-001  3.575000e-001  0.000000e+000
      vertex  8.135000e-001  3.575000e-001 -8.130000e-001
    endloop
  endfacet
  facet normal  0.000000e+000  1.000000e+000  -0.000000e+000
    outer loop
      vertex  8.135000e-001  3.575000e-001 -8.130000e-001
      vertex  7.135000e-001  3.575000e-001  0.000000e+000
      vertex  8.135000e-001  3.575000e-001  0.000000e+000
    endloop
  endfacet
  facet normal -1.000000e+000  -0.000000e+000  0.000000e+000
    outer loop
      vertex  7.135000e-001  2.575000e-001  0.000000e+000
      vertex  7.135000e-001  3.575000e-001  0.000000e+000
      vertex  7.135000e-001  2.575000e-001 -8.130000e-001
    endloop
  endfacet
  facet normal -1.000000e+000  0.000000e+000  0.000000e+000
    outer loop
      vertex  7.135000e-001  2.575000e-001 -8.130000e-001
      vertex  7.135000e-001  3.575000e-001  0.000000e+000
      vertex  7.135000e-001  3.575000e-001 -8.130000e-001
    endloop
  endfacet
  facet normal  0.000000e+000 -1.000000e+000  -0.000000e+000
    outer loop
      vertex  8.135000e-001  2.575000e-001 -8.130000e-001
      vertex  8.135000e-001  2.575000e-001  0.000000e+000
      vertex  7.135000e-001  2.575000e-001 -8.130000e-001
    endloop
  endfacet
  facet normal  0.000000e+000 -1.000000e+000  0.000000e+000
    outer loop
      vertex  7.135000e-001  2.575000e-001 -8.130000e-001
      vertex  8.135000e-001  2.575000e-001  0.000000e+000
      vertex  7.135000e-001  2.575000e-001  0.000000e+000
    endloop
  endfacet
  facet normal  1.000000e+000  -0.000000e+000  0.000000e+000
    outer loop
      vertex  8.135000e-001  3.575000e-001  0.000000e+000
      vertex  8.135000e-001  2.575000e-001  0.000000e+000
      vertex  8.135000e-001  3.575000e-001 -8.130000e-001
    endloop
  endfacet
  facet normal  1.000000e+000  0.000000e+000  0.000000e+000
    outer loop
      vertex  8.135000e-001  3.575000e-001 -8.130000e-001
      vertex  8.135000e-001  2.575000e-001  0.000000e+000
      vertex  8.135000e-001  2.575000e-001 -8.130000e-001
    endloop
  endfacet
  facet normal -1.000000e+000  -0.000000e+000  0.000000e+000
    outer loop
      vertex -8.135000e-001  2.575000e-001  0.000000e+000
      vertex -8.135000e-001  3.575000e-001  0.000000e+000
      vertex -8.135000e-001  2.575000e-001 -8.130000e-001
    endloop
  endfacet
  facet normal -1.000000e+000  0.000000e+000  0.000000e+000
    outer loop
      vertex -8.135000e-001  2.575000e-001 -8.130000e-001
      vertex -8.135000e-001  3.575000e-001  0.000000e+000
      vertex -8.135000e-001  3.575000e-001 -8.130000e-001
    endloop
  endfacet
  facet normal  0.000000e+000 -1.000000e+000  -0.000000e+000
    outer loop
      vertex -7.135000e-001  2.575000e-001 -8.130000e-001
      vertex -7.135000e-001  2.575000e-001  0.000000e+000
      vertex -8.135000e-001  2.575000e-001 -8.130000e-001
    endloop
  endfacet
  facet normal  0.000000e+000 -1.000000e+000  0.000000e+000
    outer loop
      vertex -8.135000e-001  2.575000e-001 -8.130000e-001
      vertex -7.135000e-001  2.575000e-001  0.000000e+000
      vertex -8.135000e-001  2.575000e-001  0.000000e+000
    endloop
  endfacet
  facet normal  1.000000e+000  -0.000000e+000  0.000000e+000
    outer loop
      vertex -7.135000e-001  3.575000e-001  0.000000e+000
      vertex -7.135000e-001  2.575000e-001  0.000000e+000
      vertex -7.135000e-001  3.575000e-001 -8.130000e-001
    endloop
  endfacet
  facet normal  1.000000e+000  0.000000e+000  0.000000e+000
    outer loop
      vertex -7.135000e-001  3.575000e-001 -8.130000e-001
      vertex -7.135000e-001  2.575000e-001  0.000000e+000
      vertex -7.135000e-001  2.575000e-001 -8.130000e-001
    endloop
  endfacet
  facet normal  0.000000e+000  1.000000e+000  0.000000e+000
    outer loop
      vertex -8.135000e-001  3.575000e-001 -8.130000e-001
      vertex -8.135000e-001  3.575000e-001  0.000000e+000
      vertex -7.135000e-001  3.575000e-001 -8.130000e-001
    endloop
  endfacet
  facet normal  0.000000e+000  1.000000e+000  -0.000000e+000
    outer loop
      vertex -7.135000e-001  3.575000e-001 -8.130000e-001
      vertex -8.135000e-001  3.575000e-001  0.000000e+000
      vertex -7.135000e-001  3.575000e-001  0.000000e+000
    endloop
  endfacet
  facet normal  1.000000e+000  -0.000000e+000  0.000000e+000
    outer loop
      vertex  8.135000e-001 -2.575000e-001  0.000000e+000
      vertex  8.135000e-001 -3.575000e-001  0.000000e+000
      vertex  8.135000e-001 -2.575000e-001 -8.130000e-001
    endloop
  endfacet
  facet normal  1.000000e+000  0.000000e+000  0.000000e+000
    outer loop
      vertex  8.135000e-001 -2.575000e-001 -8.130000e-001
      vertex  8.135000e-001 -3.575000e-001  0.000000e+000
      vertex  8.135000e-001 -3.575000e-001 -8.130000e-001
    endloop
  endfacet
  facet normal  0.000000e+000  1.000000e+000  -0.000000e+000
    outer loop
      vertex  8.135000e-001 -2.575000e-001  0.000000e+000
      vertex  8.135000e-001 -2.575000e-001 -8.130000e-001
      vertex  7.135000e-001 -2.575000e-001  0.000000e+000
    endloop
  endfacet
  facet normal  0.000000e+000  1.000000e+000  0.000000e+000
    outer loop
      vertex  7.135000e-001 -2.575000e-001  0.000000e+000
      vertex  8.135000e-001 -2.575000e-001 -8.130000e-001
      vertex  7.135000e-001 -2.575000e-001 -8.130000e-001
    endloop
  endfacet
  facet normal -1.000000e+000  -0.000000e+000  0.000000e+000
    outer loop
      vertex  7.135000e-001 -3.575000e-001  0.000000e+000
      vertex  7.135000e-001 -2.575000e-001  0.000000e+000
      vertex  7.135000e-001 -3.575000e-001 -8.130000e-001
    endloop
  endfacet
  facet normal -1.000000e+000  0.000000e+000  0.000000e+000
    outer loop
      vertex  7.135000e-001 -3.575000e-001 -8.130000e-001
      vertex  7.135000e-001 -2.575000e-001  0.000000e+000
      vertex  7.135000e-001 -2.575000e-001 -8.130000e-001
    endloop
  endfacet
  facet normal  0.000000e+000 -1.000000e+000  0.000000e+000
    outer loop
      vertex  7.135000e-001 -3.575000e-001  0.000000e+000
      vertex  7.135000e-001 -3.575000e-001 -8.130000e-001
      vertex  8.135000e-001 -3.575000e-001  0.000000e+000
    endloop
  endfacet
  facet normal  0.000000e+000 -1.000000e+000  -0.000000e+000
    outer loop
      vertex  8.135000e-001 -3.575000e-001  0.000000e+000
      vertex  7.135000e-001 -3.575000e-001 -8.130000e-001
      vertex  8.135000e-001 -3.575000e-001 -8.130000e-001
    endloop
  endfacet
  facet normal  0.000000e+000 -1.000000e+000  0.000000e+000
    outer loop
      vertex -8.135000e-001 -3.575000e-001  0.000000e+000
      vertex -8.135000e-001 -3.575000e-001 -8.130000e-001
      vertex -7.135000e-001 -3.575000e-001  0.000000e+000
    endloop
  endfacet
  facet normal  0.000000e+000 -1.000000e+000  -0.000000e+000
    outer loop
      vertex -7.135000e-001 -3.575000e-001  0.000000e+000
      vertex -8.135000e-001 -3.575000e-001 -8.130000e-001
      vertex -7.135000e-001 -3.575000e-001 -8.130000e-001
    endloop
  endfacet
  facet normal  1.000000e+000  -0.000000e+000  0.000000e+000
    outer loop
      vertex -7.135000e-001 -2.575000e-001  0.000000e+000
      vertex -7.135000e-001 -3.575000e-001  0.000000e+000
      vertex -7.135000e-001 -2.575000e-001 -8.130000e-001
    endloop
  endfacet
  facet normal  1.000000e+000  0.000000e+000  0.000000e+000
    outer loop
      vertex -7.135000e-001 -2.575000e-001 -8.130000e-001
      vertex -7.135000e-001 -3.575000e-001  0.000000e+000
      vertex -7.135000e-001 -3.575000e-001 -8.130000e-001
    endloop
  endfacet
  facet normal  0.000000e+000  1.000000e+000  -0.000000e+000
    outer loop
      vertex -7.135000e-001 -2.575000e-001  0.000000e+000
      vertex -7.135000e-001 -2.575000e-001 -8.130000e-001
      vertex -8.135000e-001 -2.575000e-001  0.000000e+000
    endloop
  endfacet
  facet normal  0.000000e+000  1.000000e+000  0.000000e+000
    outer loop
      vertex -8.135000e-001 -2.575000e-001  0.000000e+000
      vertex -7.135000e-001 -2.575000e-001 -8.130000e-001
      vertex -8.135000e-001 -2.575000e-001 -8.130000e-001
    endloop
  endfacet
  facet normal -1.000000e+000  -0.000000e+000  0.000000e+000
    outer loop
      vertex -8.135000e-001 -3.575000e-001  0.000000e+000
      vertex -8.135000e-001 -2.575000e-001  0.000000e+000
      vertex -8.135000e-001 -3.575000e-001 -8.130000e-001
    endloop
  endfacet
  facet normal -1.000000e+000  0.000000e+000  0.000000e+000
    outer loop
      vertex -8.135000e-001 -3.575000e-001 -8.130000e-001
      vertex -8.135000e-001 -2.575000e-001  0.000000e+000
      vertex -8.135000e-001 -2.575000e-001 -8.130000e-001
    endloop
  endfacet
  facet normal  -0.000000e+000  0.000000e+000 -1.000000e+000
    outer loop
      vertex  7.135000e-001  3.575000e-001 -8.130000e-001
      vertex  8.135000e-001  3.575000e-001 -8.130000e-001
      vertex  7.135000e-001  2.575000e-001 -8.130000e-001
    endloop
  endfacet
  facet normal  0.000000e+000  0.000000e+000 -1.000000e+000
    outer loop
      vertex  7.135000e-001  2.575000e-001 -8.130000e-001
      vertex  8.135000e-001  3.575000e-001 -8.130000e-001
      vertex  8.135000e-001  2.575000e-001 -8.130000e-001
    endloop
  endfacet
  facet normal  -0.000000e+000  0.000000e+000 -1.000000e+000
    outer loop
      vertex -8.135000e-001  3.575000e-001 -8.130000e-001
      vertex -7.135000e-001  3.575000e-001 -8.130000e-001
      vertex -8.135000e-001  2.575000e-001 -8.130000e-001
    endloop
  endfacet
  facet normal  0.000000e+000  0.000000e+000 -1.000000e+000
    outer loop
      vertex -8.135000e-001  2.575000e-001 -8.130000e-001
      vertex -7.135000e-001  3.575000e-001 -8.130000e-001
      vertex -7.135000e-001  2.575000e-001 -8.130000e-001
    endloop
  endfacet
  facet normal  -0.000000e+000  0.000000e+000 -1.000000e+000
    outer loop
      vertex  7.135000e-001 -2.575000e-001 -8.130000e-001
      vertex  8.135000e-001 -2.575000e-001 -8.130000e-001
      vertex  7.135000e-001 -3.575000e-001 -8.130000e-001
    endloop
  endfacet
  facet normal  0.000000e+000  0.000000e+000 -1.000000e+000
    outer loop
      vertex  7.135000e-001 -3.575000e-001 -8.130000e-001
      vertex  8.135000e-001 -2.575000e-001 -8.130000e-001
      vertex  8.135000e-001 -3.575000e-001 -8.130000e-001
    endloop
  endfacet
  facet normal  -0.000000e+000  0.000000e+000 -1.000000e+000
    outer loop
      vertex -8.135000e-001 -2.575000e-001 -8.130000e-001
      vertex -7.135000e-001 -2.575000e-001 -8.130000e-001
      vertex -8.135000e-001 -3.575000e-001 -8.130000e-001
    endloop
  endfacet
  facet normal  0.000000e+000  0.000000e+000 -1.000000e+000
    outer loop
      vertex -8.135000e-001 -3.575000e-001 -8.130000e-001
      vertex -7.135000e-001 -2.575000e-001 -8.130000e-001
      vertex -7.135000e-001 -3.575000e-001 -8.130000e-001
    endloop
  endfacet
  facet normal  0.000000e+000  0.000000e+000  1.000000e+000
    outer loop
      vertex -9.135001e-001 -4.575000e-001  4.200000e-002
      vertex  9.135001e-001 -4.575000e-001  4.200000e-002
      vertex -9.135001e-001  4.575000e-001  4.200000e-002
    endloop
  endfacet
  facet normal  -0.000000e+000  0.000000e+000  1.000000e+000
    outer loop
      vertex -9.135001e-001  4.575000e-001  4.200000e-002
      vertex  9.135001e-001 -4.575000e-001  4.200000e-002
      vertex  9.135001e-001  4.575000e-001  4.200000e-002
    endloop
  endfacet
  facet normal  0.000000e+000  1.000000e+000  0.000000e+000
    outer loop
      vertex -9.135001e-001  4.575000e-001  0.000000e+000
      vertex -9.135001e-001  4.575000e-001  4.200000e-002
      vertex  9.135001e-001  4.575000e-001  0.000000e+000
    endloop
  endfacet
  facet normal  0.000000e+000  1.000000e+000  -0.000000e+000
    outer loop
      vertex  9.135001e-001  4.575000e-001  0.000000e+000
      vertex -9.135001e-001  4.575000e-001  4.200000e-002
      vertex  9.135001e-001  4.575000e-001  4.200000e-002
    endloop
  endfacet
  facet normal  1.000000e+000  0.000000e+000  0.000000e+000
    outer loop
      vertex  9.135001e-001 -4.575000e-001  4.200000e-002
      vertex  9.135001e-001 -4.575000e-001  0.000000e+000
      vertex  9.135001e-001  4.575000e-001  4.200000e-002
    endloop
  endfacet
  facet normal  1.000000e+000  0.000000e+000  0.000000e+000
    outer loop
      vertex  9.135001e-001  4.575000e-001  4.200000e-002
      vertex  9.135001e-001 -4.575000e-001  0.000000e+000
      vertex  9.135001e-001  4.575000e-001  0.000000e+000
    endloop
  endfacet
  facet normal  0.000000e+000 -1.000000e+000  -0.000000e+000
    outer loop
      vertex  9.135001e-001 -4.575000e-001  0.000000e+000
      vertex  9.135001e-001 -4.575000e-001  4.200000e-002
      vertex -9.135001e-001 -4.575000e-001  0.000000e+000
    endloop
  endfacet
  facet normal  0.000000e+000 -1.000000e+000  0.000000e+000
    outer loop
      vertex -9.135001e-001 -4.575000e-001  0.000000e+000
      vertex  9.135001e-001 -4.575000e-001  4.200000e-002
      vertex -9.135001e-001 -4.575000e-001  4.200000e-002
    endloop
  endfacet
  facet normal -1.000000e+000  0.000000e+000  0.000000e+000
    outer loop
      vertex -9.135001e-001  4.575000e-001  4.200000e-002
      vertex -9.135001e-001  4.575000e-001  0.000000e+000
      vertex -9.135001e-001 -4.575000e-001  4.200000e-002
    endloop
  endfacet
  facet normal -1.000000e+000  0.000000e+000  0.000000e+000
    outer loop
      vertex -9.135001e-001 -4.575000e-001  4.200000e-002
      vertex -9.135001e-001  4.575000e-001  0.000000e+000
      vertex -9.135001e-001 -4.575000e-001  0.000000e+000
    endloop
  endfacet
endsolid CATIA STL
